<mxfile host="app.diagrams.net" modified="2024-01-17T17:14:31.577Z" agent="Mozilla/5.0 (Macintosh; Intel Mac OS X 10_15_7) AppleWebKit/537.36 (KHTML, like Gecko) Chrome/120.0.0.0 Safari/537.36" etag="VGumw9mukDJ27dBdz1hg" version="21.7.2" type="github">
  <diagram name="第 1 页" id="W33UbnDHjYkF8U9K14Nu">
    <mxGraphModel dx="2901" dy="1180" grid="1" gridSize="10" guides="1" tooltips="1" connect="1" arrows="1" fold="1" page="1" pageScale="1" pageWidth="827" pageHeight="1169" math="0" shadow="0">
      <root>
        <mxCell id="0" />
        <mxCell id="1" parent="0" />
        <mxCell id="pcb0knjUofV3J0k_9IlG-12" value="商家接受邀约&lt;br&gt;场景标写入全托管商品域&lt;br&gt;OpenSearch" style="edgeLabel;html=1;align=center;verticalAlign=middle;resizable=0;points=[];labelBackgroundColor=none;" parent="1" vertex="1" connectable="0">
          <mxGeometry x="153.0034782608695" y="1019.9999999999998" as="geometry" />
        </mxCell>
        <mxCell id="atDhAGsUYtWK8VnYLnzi-80" value="&lt;br&gt;&lt;br&gt;招商活动" style="rounded=0;whiteSpace=wrap;html=1;fillColor=#fff2cc;strokeColor=#d6b656;strokeWidth=2;opacity=50;" parent="1" vertex="1">
          <mxGeometry x="730" y="664" width="114" height="360" as="geometry" />
        </mxCell>
        <mxCell id="dMnPdU8_rPsaozqAxNBG-15" value="" style="rounded=0;whiteSpace=wrap;html=1;fillColor=#e1d5e7;strokeColor=#9673a6;strokeWidth=2;opacity=50;" parent="1" vertex="1">
          <mxGeometry x="107.5" y="40" width="102.5" height="250" as="geometry" />
        </mxCell>
        <mxCell id="dMnPdU8_rPsaozqAxNBG-1" value="商品邀约记录" style="swimlane;whiteSpace=wrap;html=1;" parent="1" vertex="1">
          <mxGeometry x="380" y="120" width="177" height="201" as="geometry" />
        </mxCell>
        <mxCell id="dMnPdU8_rPsaozqAxNBG-2" value="" style="shape=cylinder3;whiteSpace=wrap;html=1;boundedLbl=1;backgroundOutline=1;size=15;" parent="dMnPdU8_rPsaozqAxNBG-1" vertex="1">
          <mxGeometry x="30" y="128" width="40" height="40" as="geometry" />
        </mxCell>
        <mxCell id="dMnPdU8_rPsaozqAxNBG-3" value="" style="shape=cylinder3;whiteSpace=wrap;html=1;boundedLbl=1;backgroundOutline=1;size=15;" parent="dMnPdU8_rPsaozqAxNBG-1" vertex="1">
          <mxGeometry x="100" y="128" width="40" height="40" as="geometry" />
        </mxCell>
        <mxCell id="dMnPdU8_rPsaozqAxNBG-4" value="任务维度表" style="rounded=1;whiteSpace=wrap;html=1;strokeColor=none;opacity=0;" parent="dMnPdU8_rPsaozqAxNBG-1" vertex="1">
          <mxGeometry x="10" y="161" width="70" height="30" as="geometry" />
        </mxCell>
        <mxCell id="dMnPdU8_rPsaozqAxNBG-5" value="商家维度表" style="rounded=1;whiteSpace=wrap;html=1;strokeColor=none;opacity=0;" parent="dMnPdU8_rPsaozqAxNBG-1" vertex="1">
          <mxGeometry x="65" y="161" width="110" height="30" as="geometry" />
        </mxCell>
        <mxCell id="dMnPdU8_rPsaozqAxNBG-19" value="IC" style="image;aspect=fixed;perimeter=ellipsePerimeter;html=1;align=center;shadow=0;dashed=0;spacingTop=3;image=img/lib/active_directory/list.svg;" parent="dMnPdU8_rPsaozqAxNBG-1" vertex="1">
          <mxGeometry x="70" y="39" width="23.1" height="33" as="geometry" />
        </mxCell>
        <mxCell id="dMnPdU8_rPsaozqAxNBG-11" value="" style="edgeStyle=orthogonalEdgeStyle;rounded=0;orthogonalLoop=1;jettySize=auto;html=1;" parent="1" source="dMnPdU8_rPsaozqAxNBG-6" edge="1">
          <mxGeometry relative="1" as="geometry">
            <mxPoint x="160" y="150" as="targetPoint" />
          </mxGeometry>
        </mxCell>
        <mxCell id="dMnPdU8_rPsaozqAxNBG-6" value="BPMS审批通过" style="shape=umlActor;verticalLabelPosition=bottom;verticalAlign=top;html=1;outlineConnect=0;" parent="1" vertex="1">
          <mxGeometry x="150" y="50" width="20" height="40" as="geometry" />
        </mxCell>
        <mxCell id="dMnPdU8_rPsaozqAxNBG-9" value="棱镜diff" style="image;aspect=fixed;perimeter=ellipsePerimeter;html=1;align=center;shadow=0;dashed=0;spacingTop=3;image=img/lib/active_directory/domain_controller.svg;" parent="1" vertex="1">
          <mxGeometry x="142.5" y="360" width="35" height="50" as="geometry" />
        </mxCell>
        <mxCell id="dMnPdU8_rPsaozqAxNBG-10" value="棱镜" style="image;aspect=fixed;perimeter=ellipsePerimeter;html=1;align=center;shadow=0;dashed=0;spacingTop=3;image=img/lib/active_directory/domain_controller.svg;" parent="1" vertex="1">
          <mxGeometry x="141.25" y="200" width="35" height="50" as="geometry" />
        </mxCell>
        <mxCell id="dMnPdU8_rPsaozqAxNBG-25" value="" style="edgeStyle=orthogonalEdgeStyle;rounded=0;orthogonalLoop=1;jettySize=auto;html=1;" parent="1" source="dMnPdU8_rPsaozqAxNBG-24" target="dMnPdU8_rPsaozqAxNBG-10" edge="1">
          <mxGeometry relative="1" as="geometry" />
        </mxCell>
        <UserObject label="schedulerX" link="https://www.draw.io" id="dMnPdU8_rPsaozqAxNBG-24">
          <mxCell style="text;html=1;strokeColor=none;fillColor=none;whiteSpace=wrap;align=center;verticalAlign=middle;fontColor=#0000EE;fontStyle=4;" parent="1" vertex="1">
            <mxGeometry x="128.75" y="130" width="60" height="40" as="geometry" />
          </mxCell>
        </UserObject>
        <mxCell id="dMnPdU8_rPsaozqAxNBG-26" value="" style="edgeStyle=orthogonalEdgeStyle;rounded=0;orthogonalLoop=1;jettySize=auto;html=1;exitX=1;exitY=0.5;exitDx=0;exitDy=0;" parent="1" source="dMnPdU8_rPsaozqAxNBG-15" edge="1">
          <mxGeometry relative="1" as="geometry">
            <mxPoint x="169" y="180" as="sourcePoint" />
            <mxPoint x="380" y="165" as="targetPoint" />
          </mxGeometry>
        </mxCell>
        <mxCell id="dMnPdU8_rPsaozqAxNBG-27" value="" style="edgeStyle=orthogonalEdgeStyle;rounded=0;orthogonalLoop=1;jettySize=auto;html=1;entryX=0;entryY=0.75;entryDx=0;entryDy=0;exitX=1;exitY=0.5;exitDx=0;exitDy=0;" parent="1" source="dMnPdU8_rPsaozqAxNBG-9" target="dMnPdU8_rPsaozqAxNBG-1" edge="1">
          <mxGeometry relative="1" as="geometry">
            <mxPoint x="179" y="190" as="sourcePoint" />
            <mxPoint x="179" y="220" as="targetPoint" />
          </mxGeometry>
        </mxCell>
        <mxCell id="atDhAGsUYtWK8VnYLnzi-2" value="运营小二" style="shape=image;verticalLabelPosition=bottom;labelBackgroundColor=default;verticalAlign=top;aspect=fixed;imageAspect=0;image=data:image/png,iVBORw0KGgoAAAANSUhEUgAAAMgAAADICAYAAACtWK6eAAAAAXNSR0IArs4c6QAAEjNJREFUeF7tnQvwdVMZxh9DdFERRRIjlyapSJFSqSjXEdVUGEZJ0tVdxkTTSCiV6F4jRTfKiOiGlESikJIwlEiJlKQymh/rTMf3nXP+e62991lr7/28M3vO32e9a73redezL+vyvkvIYgSMwFQEljA2RsAITEfABPHoMAIzEDBBPDyMgAniMWAE0hDwEyQNN2sNBAETZCCOdjfTEDBB0nCz1kAQMEEG4mh3Mw0BEyQNN2sNBAETZCCOdjfTEDBB0nCz1kAQMEEG4mh3Mw0BEyQNN2sNBAETZCCOdjfTEDBB0nCz1kAQMEEG4mh3Mw0BEyQNN2sNBAETZCCOdjfTEDBB0nCz1kAQMEEG4mh3Mw0BEyQNN2sNBAETZCCOdjfTEDBB0nCz1kAQMEHKcfTyklYP5two6Y5yTBuuJSbI/H2/hqRtJK0bCLFa+H30Iqb8XRJEuSn8Xi3pLEk3zN/k4bZogrTv+2UkvShc20pav2aTv5B0pqQLwnVvzfqsPgMBE6S94bGmpH0k7SjpiS01c4ukb0j6sKTrWmpj0NWaIM27nycGxOB6QvPVT6zxtkASiOInSoOgmyANgilpZ0n7Snp2s9VWru0yScdKOrmyhgvORMAEaWaA8KT4RHidaqbGerXw2rWXpD/Xq8baJkj9MfAcSSdJelr9qhqtgVmvXSX9vNFaB1aZCVLP4a+SdGq9KlrVvl8SNn6z1VZ6XLkJku5cPsJ53++CYOtHumBoaTaaIGkeeYOkz6WpZtPaXdKJ2VrvaMMmSLzjnifponi1IjSw/eIiLOmIESZInKPWkXRNnEpxpdeW9LvirCrUIBOkumNWkHSOJGatmpJ/SPqxpOvHLup+yti1qaRlm2pQ0iWStpL01wbr7G1VJkg114ITM0HbVys+sxTTrmdL+oGk8yvWt5mkzcPAbmIR8nRJO1Rse9DFTJBq7t9b0gnVik4txV6p48P138S6lpL0NklvD0+YxGoeUKNPLG5aZiBggiw8PB4ZXkuevnDRqSUOD8S4vUYd46orBqIcVqO+qyRtJOmeGnX0XtUEWdjF+0s6ZuFiU0u8S9JHa+jPUqVuNiimCn37UKryEPRMkNle5k7NRy2HnFKE7Se/SVGM0KENtpWkCJMDPEWaerKl2FC0jgky2z3vkfTeRA+uIonzGvMQ2ro5sSH6+L5E3d6rmSCzXfxbSawbxMp24dRfrF6d8rR5RkIF9PGpCXqDUDFBprv5ZZK+nzAK+CBPfeokNPcQFdpO+XCnr+fWbbyP+ibIdK8eLemASKczlbtxxnd6vpnYSsJCY4zQ14NiFIZS1gSZ7mmCIzwrciCUsGs2ZZcxfd0gsq+DKG6CTHYzd+DYIAgcd2VG6L7MI4fFRJ4isSvu9NkhhRZxngkyeTSzUn1c5EBnreTASJ22imMLaxwxQp9Z6beMIWCCTB4OH5f0lsiRsnXYYxWp1kpxbCHIXIzQ57fGKAyhrAky2csMLgZZVbm74R23VdudVY6dwo+KqIg+E9jO4ifIgmPgSknrLVjq/wXYBs8W8pKEHcNbRhjE3qxnRJQfRFE/QSa7+S5Ji8bKnTUgSnw9YfcxO3arCrGAH1O18FDKmSCLe/pxCesYJW7620/SByMHMn13VHm/Ys0cNgSXvjxyYBF/t7TQOhyIIoBcjLAWwpqIJSDgJ8jiQ4FBwppGjJggMWh1qKwJsriz2K4RG7KzL69Y9N1b3/2KteAtjGlbThJWlT58pP8zclq4KjadLucnyGT3ccgpZgt4H6Z56XNp8YWzk8sEmeyC70raIsI7d0oix2BJwmzUchEG0edXRJQfRFETZLKbCStKeNEY2UTST2MUWiybEv2RPu/Rok2drNoEmew2Dh1x+ChGDpZ0VIxCi2Wx5cjI+nMe9Io0dX7FTZDJWHMOJHY9oKTvkNhtJqBAn6+Y39DrRksmyHQ/cR4k9mTebiGZTk7vY0NsFHf6ulZOo0tt2wSZ7hm2abBdI0a4A79AEjtpcwj7xy5M2HRIX2OPF+fo39zbNEGmQ75NYmSSnO/yqUEb6Ou35z76OtCgCTLdSSwUcgQ1JZVzm9EUp1mcGmXxTyEwnkOQTkDWBJl9F/uUpD0Tb3TziKo4Mq1OdEX6SEZciwkSPQaY2SH06NLRmg8qsHjIImKbQhupuT7uDYEmPHs1xUN+giw8dAkOzetLqhBdJHb7fNW2qLtOmmf6tm/VxoZYzgRZ2OuEHuUpErNtY7xWUjG/OuFsxkKW1U1BzVYUwhQ5HdsMpE2QhYbhg///CEmHVCs6tRRhTFmfOLlmPbtIYq2DjFN1hD4dWqeCIeiaINW8vKqk8xpaTPtZCMlzmiQCJVQRAkjwxCDqSBM5Eq+VRFq3P1ZpfMhlTJDq3mdwfqt68UoliYBInbzucPGxjU/48B5dRG0n3m+T4nWPimiaIBWBCsX4oO16Rib6UCcrVRxiHS9tgsQ78GMhP2C8Zn4NUsHVmZHL34M5W2CCpAFOBJNXpqlm0yLCCd8xlggETJAIsBYp+hVJr01Xn6vmlyXtNNcWe9KYCVLPkWzRKD3XODayncSSgIAJkgDaIirbSzq9fjWt1IBtKXkLWzGmi5WaIM14jTMgnOmOiYTSTMuTa7lG0hvD2ZA22+l93SZIcy5mMZEpVFKg5RSmcI+V9IecRvSlbROkeU8S3QSSvKb5qmfW+PWwvnHRnNvtdXMmSHvuhSAQBcK0KRCCpwYEsTSMgAnSMKATqiMHORsL+X1uQ82xn+sHIY87v5aWEDBBWgJ2SrWrh+iFZH5aQxLBoh8vaZkp5TnQRCDtv4Tjv4QW+o6kG+dr9nBbM0HK8D3RSEZkwaIRKcj6ZMmIgAmSEXw3XT4CJkj5PrKFGREwQTKC76bLR8AEKd9HtjAjAiZIRvDddPkImCDl+8gWZkTABMkIvpsuHwETpHwf2cKMCJggGcF30+UjYIKU7yNbmBEBEyQj+G66fARMkPJ9ZAszImCCzAf8ZSWtNOVaeZF/xyKS2nDdOvb36N/Gf3OlepsPagW0YoK044QNJZGrnLPqXKu104xukvSjcJGj/ZcttTPYak2Q+q5fRRKEGCcFT4wcQmxfCANZLg1X2wl8cvRzbm2aIPFQLxkiFHJCcESM+Frmo/FvSRzJhSwk6Tx3Ps32pxUTpLovyeZE6E6uUsL7VLf+wZI8WQhBSuhUJ86pgJ4JMhskTvpBCDJEkTKgL/KfQJQRWfhvywQETJDJw2LTsafFk3s+cniSjIjCE8YyhoAJ8tDhQDTCnSW9ZKCjhAgpp0j6/ED7v1i3TZAHIdk65M3YwgPjAQTODomCBh9SaOgEWT8Ed9vVxJiIAJHrCWM62A/6oRKEVW0yLXE93OSYiQAhiEg7B1EG9zE/RIK8IxCDwG2W6ggQzRGSkDhoMDIkgjBVyxODrR8lyF1jAeK4S4+CxWEb0RZHgeRGfz+mBKMlnRqIMogg2UMgCK9QvCLsnWmAsYp9QbgIGUoYUchAWNEYITzpiCyEMH1RuJrImx5jB2Xvl7TfELLl9p0gbAWBHC+OHQE1yl8Y9kP9RBLX7TXqqqLKk+b54Xph+K2i10QZkgZBlL81UVmJdfSZILsFcqzQMvBsP+e14/xAiD+23N5C1bN5EsJsJmlHSU9cSKHm/784JA7iZtA76StBPiDpoJa99f1ADMjR9lMitSvLBZJAlDa3ynAuZf8+JgvtI0FOC4MidVDN0vv9GCm6dsdkzWeHgM16bYATMv7m+tZrpUt9IwgHhp7ZAlJnSYJ4PC36kJKA7Lc8VdpYIOUbjL1svZA+EeSfkh7RsFdIVvPJgtM81+0ukxfvDE+WunWN6/PKxU7ozktfCEJG1yc16A0+uCHGVxuss+SqXhvWiDgm3JRcJekZTVWWq54+EOS8MGPTBIYsfrH/6ItNVNbBOkbbb1hnaUI+K+lNTVSUq46uE+RrDaVbvlLScZJw6NCFaeERUZZuAAxmFN/dQD1ZqugyQb7Q0EcmZ7WZeXFizIcOQY4Yc9NoYmsOU+5HZxnhNRvtKkG4w5EbvK58WtKb61bSY30CVHxJ0usa6CNHlzm52CnpIkHYg/Q9SXUf/wdLOqpT3spnLHf/A2o2z0QKB9N4ne2MdI0gxJuCHHVmW+4Jrw2Xd8ZLZRjKbuiv1zSF2cGtJP2rZj1zU+8aQereydg3VIdcc3NMoQ09VtI1IVRqqolHSDo0VXneel0iCIta3IFSBd2hBmNIxWyaHjeajRIrvTvcpFgnKV66RBBmm3g8p4jJkYLabB1m/VJjDn9G0p7Nm9R8jV0hCNOwJyR2n1i1fNhbmkWAw1t8eKdOlhC6tfhQqF0gCI74uaSUAG7XSlqn2XHh2sYQ4DWL160UOUMSmyaLli4QZK+w/SMWSHbd8kF+dayiy0chwD6u1EAOHOr6YVRrcy7cBYIwrbt5Ai67SzoxQc8q8QiwpnRkvJo4srtHgt7cVEonCE+AlOgZ3NFePzcU3RAIcGaGhcAYIXAFB7l+E6M0z7KlE+SYcJQzBhOSyDAl3IlpxJiOFV6Wc/C8Li0VaWfR6yKlE4Q7S2wujvdKOjzSSS7eDALgflhkVWw9aeMUaKQZk4uXTJCUGRIiihAn6pZG0HElsQhsHJL0xOqxnsJ5/+KkZIJwhuD9kYj56REJWAvFyTECUWKEfV6c+S9OSiYIYXVYTIoRjnj62yMGsebL8ooV+4rLrmpmwoqTkglCeMsYuU7SWjEKLtsKAi+XRLCLGOHY9EtjFOZVtlSCEKg5Npwl58jbCGMzL1/0qR18FxNs+7KQMbg4DEolyKoJH20HSmJa2JIfge9KisnWRYKetfObvbgFpRJkXUm/igTMK+eRgLVYnKf5LhH131bzjElEU3FFSyXIJiEQdExviD3LlnhLfgRiF3hZUS8y01efCLKdpDPzjw1bEGaxYhYMTZDIYZPyikV0EqKUWPIjELui7lesSJ+lfKR7kTAS5BaLxxLEH+mRzkiZ5vWx2kiQWyrOa/sNkmLCl3qaN8EZsQuFNLFlwiJVgmlWmYEA0+2x8ca8UJgwpFLi7v5aEt8vljwIpLwaYykxBwgaXpyUOosFUMyjp0RZ97dIvmF2RWLKA7YIsVWoOCmZICSjvDkRMQIJEHa/U2EuE/taghqnAnnip6yGc8iKs+lFSskEATAiX7C+kSo8TXCcAzekIjhbj93TO0naRxJ53FOEGS/8VKSUThDIAUnqCjFlR1fduoauT+ZcUiJADK46wvFo0iwUm3qidIIA/rckbVvHC2O65DQn0SfvypeEgBAEP7NMR4BXXU538hrE74Y1gsUt2sqxkvYrGfwuEKSpp8g0P9wRPhD5SBxd10u6M1xs3ebvlGnnkn0/so09UASlHl0rBxJABC4yTrUh/5W0QekH3LpAEJxD2NHc+bfvmkCaEXkg0H0NjqKmyIh/WXTltWjab+q3Q93uEkfrkLqVtK3fFYKAQ5PJOtvG1fXPRuAUSTt3AaQuEQQ82dRGrF5LdxHo1JagrhGEYZESK6u7w6lflp8ceZAqe++7SBBAq5tpKjvwAzRgN0knda3fXSUIOL9V0vFdA3yA9t4enhrndLHvXSYIeDMFTKaiptZJuujDkm1mDYuThZ1NmNp1gowGBwSBKHW2pZQ80LpmG8TgdGfnj0D3hSDjRCHtAYSJicvUtQFYqr29IcYI4L4RZNQvVoMhyehastQR1QO72I1LHCyuS3vQn4d0oa8EGe/kmiFfCPuIuNjeYElHgAj6BKgmYQ5hlm5Nr6p8zSEQZFEvLB+ij5O9irD7nJ0e/T6sfJfN1ULIQAJVzozzdODvQaWWGCJBZo0wNuZBmJUkrRhW7cd/l5UEibjIpFT179w43yOJreVszJz0y1TspAu9QUtuxw0afHe+fARMkPJ9ZAszImCCZATfTZePgAlSvo9sYUYETJCM4Lvp8hEwQcr3kS3MiIAJkhF8N10+AiZI+T6yhRkRMEEygu+my0fABCnfR7YwIwImSEbw3XT5CJgg5fvIFmZEwATJCL6bLh8BE6R8H9nCjAiYIBnBd9PlI2CClO8jW5gRARMkI/huunwETJDyfWQLMyJggmQE302Xj4AJUr6PbGFGBEyQjOC76fIRMEHK95EtzIiACZIRfDddPgImSPk+soUZETBBMoLvpstHwAQp30e2MCMCJkhG8N10+QiYIOX7yBZmRMAEyQi+my4fAROkfB/ZwowI/A+WM2TnTsEPJAAAAABJRU5ErkJggg==;" parent="1" vertex="1">
          <mxGeometry x="170" y="500" width="60" height="60" as="geometry" />
        </mxCell>
        <mxCell id="atDhAGsUYtWK8VnYLnzi-3" value="运营工作台" style="rounded=1;whiteSpace=wrap;html=1;fillColor=#ffe6cc;strokeColor=#d79b00;" parent="1" vertex="1">
          <mxGeometry x="80" y="593" width="261" height="40" as="geometry" />
        </mxCell>
        <mxCell id="atDhAGsUYtWK8VnYLnzi-4" value="" style="edgeStyle=orthogonalEdgeStyle;rounded=0;orthogonalLoop=1;jettySize=auto;html=1;" parent="1" edge="1">
          <mxGeometry relative="1" as="geometry">
            <mxPoint x="115" y="555" as="sourcePoint" />
            <mxPoint x="115" y="615" as="targetPoint" />
          </mxGeometry>
        </mxCell>
        <mxCell id="atDhAGsUYtWK8VnYLnzi-5" value="创建邀约价任务&lt;br&gt;&lt;font style=&quot;font-size: 11px;&quot;&gt;一口价/折扣让利&lt;/font&gt;" style="edgeLabel;html=1;align=center;verticalAlign=middle;resizable=0;points=[];" parent="atDhAGsUYtWK8VnYLnzi-4" vertex="1" connectable="0">
          <mxGeometry x="-0.4667" relative="1" as="geometry">
            <mxPoint y="6" as="offset" />
          </mxGeometry>
        </mxCell>
        <mxCell id="atDhAGsUYtWK8VnYLnzi-6" value="" style="endArrow=none;dashed=1;html=1;dashPattern=1 3;strokeWidth=2;rounded=0;" parent="1" edge="1">
          <mxGeometry width="50" height="50" relative="1" as="geometry">
            <mxPoint x="-390" y="640" as="sourcePoint" />
            <mxPoint x="880" y="645" as="targetPoint" />
          </mxGeometry>
        </mxCell>
        <mxCell id="atDhAGsUYtWK8VnYLnzi-7" value="ae-merchandise-operation-s" style="rounded=0;whiteSpace=wrap;html=1;fillColor=#e1d5e7;strokeColor=#9673a6;strokeWidth=2;opacity=50;" parent="1" vertex="1">
          <mxGeometry x="-100" y="664" width="722.5" height="50" as="geometry" />
        </mxCell>
        <mxCell id="atDhAGsUYtWK8VnYLnzi-8" value="" style="edgeStyle=orthogonalEdgeStyle;rounded=0;orthogonalLoop=1;jettySize=auto;html=1;entryX=0.444;entryY=-0.04;entryDx=0;entryDy=0;entryPerimeter=0;" parent="1" target="atDhAGsUYtWK8VnYLnzi-7" edge="1">
          <mxGeometry relative="1" as="geometry">
            <mxPoint x="221" y="630" as="sourcePoint" />
            <mxPoint x="125" y="625" as="targetPoint" />
          </mxGeometry>
        </mxCell>
        <mxCell id="atDhAGsUYtWK8VnYLnzi-11" value="" style="edgeStyle=orthogonalEdgeStyle;rounded=0;orthogonalLoop=1;jettySize=auto;html=1;" parent="1" edge="1">
          <mxGeometry relative="1" as="geometry">
            <mxPoint x="-80" y="720" as="sourcePoint" />
            <mxPoint x="-80" y="780" as="targetPoint" />
          </mxGeometry>
        </mxCell>
        <mxCell id="atDhAGsUYtWK8VnYLnzi-12" value="棱镜校验" style="edgeLabel;html=1;align=center;verticalAlign=middle;resizable=0;points=[];" parent="atDhAGsUYtWK8VnYLnzi-11" vertex="1" connectable="0">
          <mxGeometry x="-0.4667" relative="1" as="geometry">
            <mxPoint y="11" as="offset" />
          </mxGeometry>
        </mxCell>
        <mxCell id="atDhAGsUYtWK8VnYLnzi-14" value="棱镜" style="image;aspect=fixed;perimeter=ellipsePerimeter;html=1;align=center;shadow=0;dashed=0;spacingTop=3;image=img/lib/active_directory/domain_controller.svg;" parent="1" vertex="1">
          <mxGeometry x="-96" y="783" width="35" height="50" as="geometry" />
        </mxCell>
        <mxCell id="atDhAGsUYtWK8VnYLnzi-15" value="" style="shape=cylinder3;whiteSpace=wrap;html=1;boundedLbl=1;backgroundOutline=1;size=15;fillColor=none;" parent="1" vertex="1">
          <mxGeometry x="-113.5" y="910" width="70" height="40" as="geometry" />
        </mxCell>
        <mxCell id="atDhAGsUYtWK8VnYLnzi-16" value="" style="edgeStyle=orthogonalEdgeStyle;rounded=0;orthogonalLoop=1;jettySize=auto;html=1;" parent="1" edge="1">
          <mxGeometry relative="1" as="geometry">
            <mxPoint x="-81" y="862" as="sourcePoint" />
            <mxPoint x="-81" y="922" as="targetPoint" />
          </mxGeometry>
        </mxCell>
        <mxCell id="atDhAGsUYtWK8VnYLnzi-18" value="ae-merchandise-operation-s&lt;br style=&quot;border-color: var(--border-color);&quot;&gt;数据库" style="rounded=0;whiteSpace=wrap;html=1;fillColor=none;strokeColor=none;" parent="1" vertex="1">
          <mxGeometry x="-158.5" y="941" width="160" height="40" as="geometry" />
        </mxCell>
        <mxCell id="atDhAGsUYtWK8VnYLnzi-26" value="" style="endArrow=classic;html=1;rounded=0;" parent="1" edge="1">
          <mxGeometry width="50" height="50" relative="1" as="geometry">
            <mxPoint x="-43.5" y="833" as="sourcePoint" />
            <mxPoint x="16.5" y="833" as="targetPoint" />
          </mxGeometry>
        </mxCell>
        <mxCell id="atDhAGsUYtWK8VnYLnzi-27" value="审核通过" style="edgeLabel;html=1;align=center;verticalAlign=middle;resizable=0;points=[];" parent="atDhAGsUYtWK8VnYLnzi-26" vertex="1" connectable="0">
          <mxGeometry x="0.1" relative="1" as="geometry">
            <mxPoint x="-7" y="10" as="offset" />
          </mxGeometry>
        </mxCell>
        <mxCell id="atDhAGsUYtWK8VnYLnzi-28" value="" style="edgeStyle=orthogonalEdgeStyle;rounded=0;orthogonalLoop=1;jettySize=auto;html=1;" parent="1" edge="1">
          <mxGeometry relative="1" as="geometry">
            <mxPoint x="50" y="719" as="sourcePoint" />
            <mxPoint x="50" y="779" as="targetPoint" />
          </mxGeometry>
        </mxCell>
        <mxCell id="atDhAGsUYtWK8VnYLnzi-29" value="商品/SKU邀约下发" style="edgeLabel;html=1;align=center;verticalAlign=middle;resizable=0;points=[];" parent="atDhAGsUYtWK8VnYLnzi-28" vertex="1" connectable="0">
          <mxGeometry x="-0.4667" relative="1" as="geometry">
            <mxPoint y="11" as="offset" />
          </mxGeometry>
        </mxCell>
        <mxCell id="atDhAGsUYtWK8VnYLnzi-32" value="" style="edgeStyle=orthogonalEdgeStyle;rounded=0;orthogonalLoop=1;jettySize=auto;html=1;entryX=1;entryY=0;entryDx=0;entryDy=22.5;entryPerimeter=0;" parent="1" target="atDhAGsUYtWK8VnYLnzi-15" edge="1">
          <mxGeometry relative="1" as="geometry">
            <mxPoint x="49" y="861" as="sourcePoint" />
            <mxPoint x="49" y="921" as="targetPoint" />
            <Array as="points">
              <mxPoint x="49" y="933" />
            </Array>
          </mxGeometry>
        </mxCell>
        <mxCell id="atDhAGsUYtWK8VnYLnzi-33" value="" style="endArrow=classic;html=1;rounded=0;exitX=0;exitY=0.5;exitDx=0;exitDy=0;" parent="1" source="atDhAGsUYtWK8VnYLnzi-39" edge="1">
          <mxGeometry width="50" height="50" relative="1" as="geometry">
            <mxPoint x="86.5" y="832" as="sourcePoint" />
            <mxPoint x="70" y="810" as="targetPoint" />
          </mxGeometry>
        </mxCell>
        <mxCell id="atDhAGsUYtWK8VnYLnzi-45" value="下发/撤回" style="edgeLabel;html=1;align=center;verticalAlign=middle;resizable=0;points=[];" parent="atDhAGsUYtWK8VnYLnzi-33" vertex="1" connectable="0">
          <mxGeometry x="0.062" y="-1" relative="1" as="geometry">
            <mxPoint y="14" as="offset" />
          </mxGeometry>
        </mxCell>
        <mxCell id="atDhAGsUYtWK8VnYLnzi-35" value="IC" style="image;aspect=fixed;perimeter=ellipsePerimeter;html=1;align=center;shadow=0;dashed=0;spacingTop=3;image=img/lib/active_directory/list.svg;" parent="1" vertex="1">
          <mxGeometry x="39.94999999999999" y="791.5" width="23.1" height="33" as="geometry" />
        </mxCell>
        <mxCell id="atDhAGsUYtWK8VnYLnzi-37" value="" style="edgeStyle=orthogonalEdgeStyle;rounded=0;orthogonalLoop=1;jettySize=auto;html=1;" parent="1" edge="1">
          <mxGeometry relative="1" as="geometry">
            <mxPoint x="182" y="720" as="sourcePoint" />
            <mxPoint x="182" y="780" as="targetPoint" />
          </mxGeometry>
        </mxCell>
        <mxCell id="atDhAGsUYtWK8VnYLnzi-44" value="棱镜监听" style="edgeLabel;html=1;align=center;verticalAlign=middle;resizable=0;points=[];" parent="atDhAGsUYtWK8VnYLnzi-37" vertex="1" connectable="0">
          <mxGeometry x="-0.2333" relative="1" as="geometry">
            <mxPoint as="offset" />
          </mxGeometry>
        </mxCell>
        <mxCell id="atDhAGsUYtWK8VnYLnzi-39" value="棱镜diff" style="image;aspect=fixed;perimeter=ellipsePerimeter;html=1;align=center;shadow=0;dashed=0;spacingTop=3;image=img/lib/active_directory/domain_controller.svg;" parent="1" vertex="1">
          <mxGeometry x="166" y="783" width="35" height="50" as="geometry" />
        </mxCell>
        <mxCell id="atDhAGsUYtWK8VnYLnzi-46" value="" style="edgeStyle=orthogonalEdgeStyle;rounded=0;orthogonalLoop=1;jettySize=auto;html=1;" parent="1" edge="1">
          <mxGeometry relative="1" as="geometry">
            <mxPoint x="294" y="554" as="sourcePoint" />
            <mxPoint x="294" y="614" as="targetPoint" />
          </mxGeometry>
        </mxCell>
        <mxCell id="atDhAGsUYtWK8VnYLnzi-47" value="邀约价任务管理" style="edgeLabel;html=1;align=center;verticalAlign=middle;resizable=0;points=[];" parent="atDhAGsUYtWK8VnYLnzi-46" vertex="1" connectable="0">
          <mxGeometry x="-0.4667" relative="1" as="geometry">
            <mxPoint as="offset" />
          </mxGeometry>
        </mxCell>
        <mxCell id="atDhAGsUYtWK8VnYLnzi-54" value="" style="endArrow=classic;html=1;rounded=0;exitX=0.533;exitY=1.1;exitDx=0;exitDy=0;exitPerimeter=0;" parent="1" source="atDhAGsUYtWK8VnYLnzi-7" edge="1">
          <mxGeometry width="50" height="50" relative="1" as="geometry">
            <mxPoint x="390" y="800" as="sourcePoint" />
            <mxPoint x="-40" y="930" as="targetPoint" />
            <Array as="points">
              <mxPoint x="285" y="930" />
            </Array>
          </mxGeometry>
        </mxCell>
        <mxCell id="atDhAGsUYtWK8VnYLnzi-55" value="任务删除/关闭" style="edgeLabel;html=1;align=center;verticalAlign=middle;resizable=0;points=[];" parent="atDhAGsUYtWK8VnYLnzi-54" vertex="1" connectable="0">
          <mxGeometry x="0.0681" y="2" relative="1" as="geometry">
            <mxPoint x="74" y="-188" as="offset" />
          </mxGeometry>
        </mxCell>
        <mxCell id="atDhAGsUYtWK8VnYLnzi-59" value="对账" style="shape=image;verticalLabelPosition=bottom;labelBackgroundColor=default;verticalAlign=top;aspect=fixed;imageAspect=0;image=data:image/png,iVBORw0KGgoAAAANSUhEUgAAAMgAAADICAYAAACtWK6eAAAAAXNSR0IArs4c6QAAGYhJREFUeF7tXWmUHVW1/nZ1gBAQRJ84I+rDgfBiJOk6pzpEm8EBFZ8KQdSMMoRJQRAfEhVQBpXJIIRBwCSgLGUhgkMYtRVy65zqNJOPID5BFAdQEEEIge5b+63T6WSFpLtvDefWrbr31FpZ+XH3/va3v1Nf171V55wiZDiEELsS0T5MNBnMbwLRm4b/d4dToBwKPAeih5j5ISJ6CHGsurq6flGr1f6elh4lTZBSvp2JFgLYB8yTk+a5OKdAiRS4lYE7EMcXRFH0RBJeDQ3S29s7ce3atcczcDyAHZKAuhinQJkVYOBBYv72TjvtdME111xTH4/ruAYRQkwD0aUAdi9zw46bUyCjAgNMtCgKw5vGyh/TIN1BsLfHfGvGwi7NKVAdBZgXaq3NhWCzY1SDiCD4CphPrU6HjqlTIKcCRCfrMPzqpiibGcQPgoXEfHHOci7dKVA5BWKiffrD8LaNib/IIEEQvD9mXlG5zhxhp4AtBZina60H1sNtMIi5W7Vm7doaAe+0VcvhOAUqqMCdL9thh54VK1Y8b7hvMIiUchEDp1WwIUfZKWBVAQYWRUqdscEgww8BgZXuOYdVnR1YdRX4p0c0IwzD3w5fQaSU5zLwuer245g7BSwrQLRYh+GxwwbxpbzT/fawLLCDq7YCRPfpMNyNhBC7gOh3eboh4E8MPJQHw+U6BawpQLQVmF8P4HW5MJknkx8ER5t5KVmACLiGiL4WhuFvsuS7HKdAMxXwg+BDHnAhM++UpQ4Bx5AIgkvAfFgGgEgrJTLkuRSnQKEKCCkfAPCW1EWJLiUh5S3DU9hTHh7RPuEmTx1TQrhwp0AhCnQHQY/HbO7Spj1uNb9BHhxe8JTueFgr9cZ0KS7aKdA6BYSUfwJgfpckP8yCKyElJ8/YENmnldozQ55LcQq0RAFfyj4C3p22uDNIWsVcfCUVcAap5LA50kUp4AxSlNKuTiUVcAap5LA50kUp4AxSlNKuTiUVcAap5LA50kUp4AxSlNKuTiUVcAap5LA50kUp4AxSlNKuTiUVqJRBZs6c+YrBwcHJzLwrE+1YScWrTZo94K6hrq4HVq1caSbytf1RGYP4QXAwMV/W9iNSnQaVR3RiGIa/qg7l9EwrYRARBNeB+SPp23MZTVdgjI3Tml63oAKlN4gIgjPBfGJBergyGRTwiN5uNirIkFr6lFIbREq5OwMhgC1Lr2QHE2TgxkipfdtRgrIb5FAGRt0cuB0Ho8o9eURT2nEJdakNIqS8EMCRVT5xOoY78xyt9VXt1m+pDeJLeQMB+7Wb6G3ZD/MJWuuz2623shvkZAJOaTfR27EfAj6glGq7DcxLbRAhxEEgurodT6h266nL83au1Wp/bLe+Sm2QqVOnvnSriRPvBOA2eijxmcfAZZFSh5aYYmZqpTaI6cr3/Y+Q512XuUOX2FQFGPgH1+tT+vv7H21qoRaBl94gwyYJglnE/MMWaeTKjqEAAeatSucrpW5oV5EqYRAjvhDilfC8LxLz3gzs1q4DUoG+/k3AjTHRTVEYXl4BvrkoVsYgG3fp+/4biWjnXJ275NQKEBErpfpSJ1Y4oZIGqbDejnrFFHAGqdiAObrFKuAMUqzerlrFFHAGqdiAObrFKuAMUqzerlrFFHAGqdiAObrFKuAMUqzerlrFFHAGqdiAObrFKuAMUqzerlrFFKiUQaSU5ul5L69740/HPEknMyGQ+Yaurq7b23FKeZk9UxmDCCE+D6KzyixmIdyIFnO9vjiKoj8UUq/Di1TCIELKGAB1+Fht3P5jYP6g1nrAadJcBUpvECHE90H0iebKUEn0X2ql9qok8wqRLrVBhBDvAdHNFdKzUKoMnBIpdWqhRTusWKkN4gfB0cT87Q4bkzTt/kgrtX+aBBebToFSG0QEwSVgPixdSx0V/Xut1C4d1XHBzZbbIFJeD+DDBWtSpXJPa6W2rxLhqnEttUF8KU8i4PSqiVogX/dDvclil9sgQfARYnY7mox1EhCdrcPwhCafIx0NX2qDmJERQfBrMM/s6FEavfknhgYH3zYwMPC406Z5CpTeIN3d3a/yurr+1jwJqonMcfyuKIpuryb76rAuvUGMlCO7mKwA0VurI23TmD7LwFGRUsuaVsEBb1CgEgYxbKdMmbLN1ttsYzayngLmdwB4ZQeN49NgNi8SupeIliilHu6g3lvaamUM0lKVXPGOVcAZpGOH3jWeRAFnkCQquZiOVcAZpGOH3jWeRAFnkCQquZiOVcAZpGOH3jWeRAFnkCQquZiOVcAZpGOH3jWeRAFnkCQquZiOVcAZpM2HXggxG8AHQDQNwKva4Ym8lNLMqJjGwO5m+BgY8ID7Pc9bYntbJGeQNjaIL+X5BHxmjBYfNu+gVxWa0yWl7I2BU2jdvmijHc8ScJTNnpxB2tQgQsrHAOzYqD0CTlVKmb/IpT66pTzQA36QhKTNmc7OIEkUr1iMkHIxgM8mps38Na31VxLHFxyYxhwj1KytlXEGKXiwm12up6dnx3ocm6tHqoOB0yOlvpQqqYDgDOZYx8rSaktnkAIGucgSQog9QfSLLDUJOEMptShLbjNyMptjHRkr6/WdQZoxsi3ElFIex8A5mSkQfV2H4Rcz51tKzGkOw8LKji/OIJYGtCwwfhB8kpi/l4cPAd9USv1PHow8uRbMYcpb2TPMGSTPSJYwV0q5u3kukJuape/waXlYMocpa2XXSWeQtCNY8vjhpcmTJt0H4A15qTJwbqTU8XlxkuZbNId5eGhl32JnkKSjV6E4IcQCEF1hhTLzt7TWn7OCNQ6ITXMA6NNK7WmDszOIDRVLiCGlXMrAPEvUztdKHWMJazMYy+aAR9QbhuGvbPB1BrGhYkkxpJQ/YOBAG/QIuEApNda0lcwlbJqDmWMCDtRaX5uZ0CaJziC2lCwpjpDyagAHWaK3RCt1lCUs2DQHgEEm+ngUhla3qnUGsTXaJcbxpbyKgE/ZoMjAxZFSR+TFsmkOBp73gAOVUjfk5bVpvjOIbUVLiieCYDmY51ihx3yp1nphViyb5gCwhj3vwKhW+1lWPuPlOYM0Q9WSYvpSLiVLP9wZuCxS6tC0rVo2xzPmN4dSakVaHknjnUGSKtUmcSIILgfzp620w3yF1vrgpFiWzfEUmM0P8qa+w9IZJOnotlGcL+V3CDjEUktLtVILGmFZNseTI1eOWxvVzfu5M0heBSuaL4S4BERW3v9IwDKl1PyxpLBsjifAPEtr/csipHcGKULlktbwpVxCQO47UsPtEV2pw3DuZneBgmAWMf/QkgR/jz1vVn+t9mtLeA1hnEEaStTeAUKIC0Bk5dkGA9+LlDKbRAwfvl1zPDpy5bijyBFxBilS7ZLWSr1Ed7w+iK7WYfhJy+b4C3verKhWM+9IKfRwBilU7vIWE0KcB6JjLTE0myt83BLWIwTMUkppS3ipYJxBUsnV3sFCyrMBFDa9PYGaD3Mcz4qiaFWC2KaEOIM0Rdbqgkopv8HAF1reAdFDHnBAGIZ3tZKLM0gr1S9pbREEZ4L5xBbS+z3H8QFRFN3TQg7rbjRI2TfORnVj0iMhJWcgb20hS4baLiWFAr6UpxFQ/A4nzA94njcrDMPfpKDbtFBnkKZJW31gIcSpICpyQ7n7wXyA1np1WdRzBinLSBTAw2wqF8fx/gzsDWAvADsUULYZJfqY6OddwK3N/o3iDNKM4SshphDiGBCZZbNvLCG9rJReAPNiz/MWh2H4l6wg4+U5gzRD1ZJhCikvBHBkyWhZo0NATSk1wxrgRkDOIM1QtUSYlp9ol6izF1NhYFGk1Bm2CTqD2Fa0ZHi+lCsJ6CkZrWbQ4aHBwR0HBgYetwnuDGJTzRJiCSn/DWDbElKzTsnmdj/ryTmDWB+m8gBOnzHjrV31+m/Lw6i5TAg4Uil1kc0qziA21SwZlhBiFxD9rmS0mkaHiQ6PwvASmwWcQWyqWUIsKeXfGXhFCalZp8Se12N7SrwziPVhKhegL+UNBOxXLlZNYfP759asmXrvvfc+axPdGcSmmiXE6u7pmerFcUtnxBYhCxPtF4XhT23XcgaxrWgJ8UQQHAvm80pIzRala7VSB9gC2xjHGaQZqpYQ0/f96Z7nLWGgu4T0slIaBNE5zXxlnDNI1qGpYN7wy3W23vpjAP4LRJMBTMrZRm+G/L4MOZumrCbgbgADSqk7LeCNCeEM0kx12xhbStnLQOq9qWy9+akoaZ1BilK6zeo4g4w/oG5FYZud8GnbcQZxBkl7znRUvDOIM0hHnfBpm3UGcQZJe86UPt7dxUo/RO5HenrNKplhnoOQ55mVhX4lGxid9AsgOtc9B2mjEW1FK+5JenbV3RUku3aVyHRzsfINkzNIPv1Kn+1m8+YbImeQfPqVPtutB8k3RM4g+fQrdbZbUZh/eJxB8mtYWgS3Jj3/0DiD5New1AhuV5N8w+MMkk+/0me7fbHyDZEzSD79Sp/tdlbMN0TOIPn0q0S225s3+zA5g2TXrlKZbnf3bMPlDJJNt0pmCSFeCWB/EO3FzHsT0Usr2Qgw/H4Qj/k2t+S2oiPY7rTddPfxR9itKGx3BzTozxnEGaTDLTB++84gziDOIOMo4AziDOIM4gzi3pPuXJBNAXcFcVeQbGdOh2Q5gziDdMipnq1NZxBnkGxnTodkOYM4g3TIqZ6tTWcQZ5BsZ06HZDmDOIN0yKmerU1nEGeQbGdOh2QJIbYD0VNp22VgfqTUsrR5rYp3s3lbpXwb1BVS3gzgPWla4TjujqJoVZqcVsY6g7RS/YrXllKewsDJKdr47dDg4LSBgYE1KXJaGuoM0lL5q19cBMFfwfzqRJ0wz9Ra35EotiRBziAlGYiq0hBCSBCFDfkTnazD8KsN40oW4AxSsgGpIp1dd911y5dsv/25YD5qFP7KIzoxDMNfVbE3Z5AqjlpJOUspd47jeDK6unYF8DDF8X1a69UlpZuIljNIIplcUKcq4AzSqSPv+k6kgDNIIplcUKcq4AzSqSPv+k6kgDNIIplcUKcq4AzSqSPv+k6kgDNIIplcUKcq4AzSqSPv+k6kgDNIIplcUKcqUAmDmMU5MbAfAa8FYDZg/jOYH40977r+MKyVefBGNow+BoY70asJ+BcT/ZWY71IVWBchpZzPzNOJ6DXMPImI/gzgMWY+X2v9WJm1t8Gt9AbxpTyZgFPGaPYZBk6IlLrYhhi2MYQQ7wXRWQCmjIG9lIBTlVIP266dF2942ghwCgHzxsC6B8wnaK1vyVurzPmlNciuvb3bbrt27XICPtpQQOYztdYnNYwrMEAIMQdEyxOUvJ/jeG6ZFhF19/R0e3FsuL+tAX8G81yt9VUJ+qxkSCkNMvy1xPOWg/m9iVVlvlBrfXTi+CYGSimPYGBJihKPeERzyjDjdWSt+ZUAXpeUPwNHlPUqnrSHseJKZ5BpPT1v7opjc+XoSd0c83Kt9XwAnDrXUoIfBCcQ8zczwP0TzHO01j/PkGslxQ+CDxGzuXLskBqQ+fNa63NS55U8oVQGEUKY7+rLQDQ1q24EXMfM87XWT2fFyJqXYQnqi0oR8HwdmNuv1A+zcsiaJ4Q4CERmM4Uts2IwcEqk1KlZ88uYVxqDdAdBjwdcAea35hWKgdtonUnMHZdCDiHl2QCOt1KM+dNa6+9awUoA4gfBwcR8WYLQxiHMZ2mtv9A4sBoRpTDIyN0eM0CvtyhbRMB8pdT9FjFHhZJSXsTA4TbrMNFnojC8wCbmaFgjL/f8ls06DFwUKXWkTcxWYbXcIH4QfJSYvwPg5U0Q4X4CFiildBOwDaR5FZ35zj67GfgEnKiU+kYzsA2mL+VJBJzeFHzmK7XWc5uCXSBoSw0ipfwUA5cCmNTEnv8yciW51WaN3t7ebdeuXbuck9yGzlf4NK3Ul/NBbJ4thDgDRF+0jbsJ3o88otlhGD7X5DpNg2+ZQaSUh46Yo2nNbQT8tEc0PwzD62wU6+7ufpU3YcKyVLehcxQm4Dyl1HE5IF6UKqRcDOCztvDGxSG6+YUJE2bfdfvt/yiknuUiLTFIM773JtHFxraXPT09b67HsbnbMyNJTWsxRJfqMFyYF09KeRkDB+fFSZm/koDZZZwx0KiPwg0C5ptAdGYjYs36PM+PX9/330FES/Pchs7TFwPfqw8OLhgYGBhMizO8Nc922xljH5Q211L8PXXPm72qVvtfS3iFwBRvEKC3kM7GK0J0kg7DVCaVUs5gwNx63aWl/Imu36Kra8Edd9zxZFIeQRC8rM5s5n3tlzSnGXEMPOgBn2riTRPrtIs2iPUGMgMSfV2HYaIfqSO3oY05XpO5nt3EW8G8IMlznmkzZuw0IY6/C+a97FLIjPZoTDS7Pwxvy4xQYGLnGsSITHShDsNx528FQfDRmNmYY/sCx6VxKeawPmHCglUrVz4wVrCU8u0jVz3RGLDQiGfAPFtrfX2hVTMUq5pB1jDRfGI236W3ztDv5inMVw4NDR082vd6IcRsEBlzTLBRi4Avx8DHCHinDTwA944857lzUzx/xozpXr3+XQZ2s1TrThBdD2ZbU0mYiWZHYfh9S/yaAlMlgzzBnjcvqtV+NjKpbqm1h4vMP/Y87+AwDP+5XmU/CBYSs711JiOT+YIg+M8687JMkzFHOwWYH4q7uhb012q/Xv/xyIxcY+ydLZ01dwx53vyBWu1BEQSfB7NZ42LnYF6otTbPwkp5VMUgj3Acz4+i6BcbTuCenr1o3e3WxNOyxxsBAsx34kPMrUgp5XEMWJuZSsCRSqmL1tcPguC1MbMx+D6WzorHRq4kK3zf/yB53hUAdrSEfcvQFlvMG7j99r+txxNBcBSYrU2DYeC4SKnzLPG1ClMFg/wOzPO01mqzrxE9PcGISazcWSKgn4l+AmZr2/SPnLjGDC869thjjx1eGBoyVxJbd5aeiYGDvXV32uzMTCC6/vnnnpt/9913/2tT/kKIT4PocmtnI/NXtNZfs4ZnCajcBiG6m+t1c+W4Z6x+u7u7p3pdXeZKMtayVktSpYNh4HkPmKvGmbq+7777bvXEk0+atS8HpkMvIJro6n8/9dT81atXvzBWNd/3P0GeZ8yfeYr8xtgMfCNS6sQCuktcorwGYTYvZTFXjv9r1I3v+28hzzMmkY1ii/icmf/lERlz/CRJPSGl+atvFnqV42C+Qmud6Gm7EOK/R9aR2LnLV6KVoWYwymkQZvNbw5gj8XoOIcTrRtaA79nis+yvMdHctPf5fSmXEHBEi7mDgAuUUp9Jw2P4OZG5kiR9FVsDcAaWRUqV4g9G6QxCwE+JaN7Gd5SSDpbv+y8ns5Yd+EDSHJtx5kkxrzNHpq2IfCnPIcDapMTUveVY7CSE2APmKs78ptR1R09YqpVaYAkrM0ypDELANRMnTpzb19e3NmtHQRBsHQNmw4cDsmJkzPtN7Hlz+2u1uzPmD6f5Up5GwKI8GFlyR7YfGmt7pUSQUsrd2ezkwjw5UULjK0nL36leGoMQsExZvKyKIDADNcfGQCXAiOpDQ3NXrVo15lPtBBgbQpq6kGkUIjYXZgVB8LY4jq8E0fQ0PY8R+4etJ07cva+vb7O7aBawE0GUwiAMXBwpZf37twiCS8B8WCIlsgf1xfX63P7+/keyQ2yeKYLgWDA3/dkAAZ9VSn3bJveenp431Ov15SB6V15cAj4+3p3AvPiN8oWU1wL4WKO4TT5/xiw1tbK1DgPnRkrZ2exglC6EEOeB6NiUDSYNXzE0ODh3YGDg8aQJaeJEEBwG5kvS5KSJZeDQSCk7mzVsUvidM2e+YssXXjBXkvel4bRpLAGXK6UOyYORJ9eX8hACzJLwxAcDNWOQpwBslzhrlEAGTo+U+lIejCS5UsrTGbC98+K1I+ZYk4RD1pgUOzSmKVHIPKgpU6ZsM2nSpCtzLkv+gVaqVWtY0N3dPdnr6kq1hsV8IyIhxI15/jowsChS6ow0o5onVkr5JQZsPam9SitV1O8bCCH2B5HZ7dDGBM1nmWhOZGn5cYIxISnlVQx8MkHs5iEZ1u5kqjNOkpDyZgDvSYpLwDRjkG+C6ISkSRvHtWrujZU5VpaWvqbVTUq5LwPGJHl2f3l8ZAbtTWnr5433pfwOAem/KjG/T2ttTtCWHb7vTyfP609CICbatz8MbzR/FXZmwFx6tkmSuD6GiQ6PwrBp36sbcfGlPJyADRMHG8W/6HOixToMm/V7piGVIAjeHTObjaJTT9Ak4E91z5uz8azfhgUtB6TdLKLobxnjtTsyY8DMPRv1DxQBZi7c0dHIKy3IgA2/O2Ld5LhEBxPNi8IwyY7nifCyBvlSziNgswmE4+IRnanD0PbvmNQtBEHgx8zmSvKWxMnMDzDz7DLsIC+C4EwwJ5lvxVopL3GPBQUOby9LtBeYZw6XJLoPcXxLV1fXt2q12h/X0xg2iDl8359JnvdjAC8bi+PIVPLzlVI3FNRHwzJSyg8z8zEwzY53MD9ARIs3nq7eELzJAdN7enbrqtdPAFHDjdnM86V6vX5Wf3//fU2mlRheCHEkiMxLhcYyeZ9WqtVThsbtZ2pv70u3eu6512itV48WuMEg5sNp06b9x4QttjB/FaaN/HvJsLOY+wlYqZp0KzHxiIwTKKU8hM16bSLDff2A/ZmAMAZWbzlhwuI0GyTY4JQUIwiC98dm4zrm9bqvSyUKwXyXR/STMAxvTIpXZJyZ7j80NGRMMo2B3QHUCVAxcF87bID9/wkj5NJwEFiwAAAAAElFTkSuQmCC;" parent="1" vertex="1">
          <mxGeometry x="580" y="910" width="30" height="30" as="geometry" />
        </mxCell>
        <mxCell id="atDhAGsUYtWK8VnYLnzi-62" value="" style="edgeStyle=orthogonalEdgeStyle;rounded=0;orthogonalLoop=1;jettySize=auto;html=1;" parent="1" edge="1">
          <mxGeometry relative="1" as="geometry">
            <mxPoint x="494.64" y="720" as="sourcePoint" />
            <mxPoint x="494.64" y="780" as="targetPoint" />
          </mxGeometry>
        </mxCell>
        <mxCell id="atDhAGsUYtWK8VnYLnzi-63" value="任务详情" style="edgeLabel;html=1;align=center;verticalAlign=middle;resizable=0;points=[];" parent="atDhAGsUYtWK8VnYLnzi-62" vertex="1" connectable="0">
          <mxGeometry x="-0.4667" relative="1" as="geometry">
            <mxPoint y="11" as="offset" />
          </mxGeometry>
        </mxCell>
        <mxCell id="atDhAGsUYtWK8VnYLnzi-68" value="营销" style="shape=image;verticalLabelPosition=bottom;labelBackgroundColor=default;verticalAlign=top;aspect=fixed;imageAspect=0;image=data:image/png,iVBORw0KGgoAAAANSUhEUgAAAMgAAADICAYAAACtWK6eAAAAAXNSR0IArs4c6QAAIABJREFUeF7tfQm0HFW19reru08ngDIID0huVwfITVfnqowyKYMgiMqsPBB9DIKgDDL6nJ4CIvqeCokIPkAh8FRUHIMoUxAIModRkq5OAklX34RRJoGkq2/X/tfp3PAnl1tTd3V3VfrUWndlrdQ+++z97fN1TfvsTVCHQkAh4IoAKWwUAgoBdwQUQdTqUAh4IKAIopaHQkARRK0BhUBrCKgrSGu4qVF9goAiSJ8EWrnZGgKKIK3hpkb1CQKKIH0SaOVmawgogrSGmxrVJwgogvRJoJWbrSGgCNIabmpUnyCgCNIngVZutoaAIkhruKlRfYKAIkifBFq52RoCiiCt4aZG9QkCiiB9EmjlZmsIKIK0hltboxbpYqgBDIEoT46jM1EeDB2EfFMxowKCRcwV1jQLzJUUMH/Qsue3NbEaHBoBRZDQkIUfYBbwLl6R3SsFZ18HdDCArcNraY54RgPf2IB2B02s3W2U8a8W9ahhARFQBAkIVCtiZj5zAoE+4TD2J2D9VnS4jWHgTY1wG4P/YlTqV0epW+n6/wgognRgNSzKZfdvEJ8N4KMdUD+eyltTTJcMVmu3dWm+vplGESTCUM/XxfQU6CyAT4xQbQhV9LMGeMaQZS8IMUiJeiCgCBLR8ijp4jwCzgKwYUQqW1XzGgMzipZ9QasK1Dh1ixXZGlg0FdmGLX4D4JDIlEajaHZK2EcOLkYtGnX9qUVdQdqIe0nP7EhEf2i+oo3jwbCY+PCiVX8kjuYlwSZFkBajVNYzxzLo2haHy2H3E3ArEw+zow2niasQ9rA8YdsipzENkOYMMFOOgP0B7NbqXAw+rmjVr2t1fD+PUwRpIfoL9ezpDvjS0EMZ12vg21c46TnbLlvRJEPQY9HkiQMNbWQ/Bu1HhE8HHbdajohOL1Rql4Ud1+/yiiAhV8D8KZntUg49FmoY4/qU5lw2WBm5P9Q4F+FSPr07OdqpIBwdRh+leLvCkvoTYcb0u6wiSIgVUJqM91BKLAOQDTKMgZvAdFmxWrs1iHxYGXMgewBpfCoDBwYcu7Lh2JOHhvFyQPm+F1MECbEETF3cAOCIIEMI+F7Bsr8eRLZdmZIuvkfAV4PoIeCGgmUfGURWyQCKIAFXQSmfuYRYfgT0PV4ldg4uVEfu8ZWMUGBhLr0nkzabgY381DLxJcVK/Rw/OXVeESTQGjB1Ia8a8urheTDjgWLVbvltk5/+IOdLOfEAEXYJIHuEYdm/CyDX1yLqChIg/KYu7vN7zUrA4oJlDwZQ13ERUxeLAWzjM9F9hmV/sOPGJHwCRRCfAJZy2bOJ+GIfsdeQol2MJbVyHNaDuVW2gAY/BODd3vbQWYZVmxkHm+NqgyKIR2Sa3x5SDflqdsArgEQ4vFCx/xinIJfy4nBi/N7TJrkpq5HavTC8Qr6ZU8c4CCiCeCyLIA/mzHx5sVo/LY6ry8xlLgfRKd7k5osLlfq5cbQ/DjYpgrhEwcxP2ArsPOMVJGYsdFKZvYaWvvlcHII51oYlU9bfYqVTn0uA17MRg7RtjMrKJXH0odc2KYK4RKCkZz5PoKt8AvQfhmX/otdB9Jp/gZ45RgN55mER8ecLlfrP4uxHr2xTBHFBvqyLXzPg8UGN7jGs2p69ClyYeU09ew/AH/IY8xvDso8Ko7NfZBVB3G6xdPESgPe4LQRiOrtQrc1IwkIp5bLnEPEP3W2llwyrtlkSfOm2jYog4yBu5ifsA3bu8AhGDaQVk3LfvlCfsLUDpwRAuPpE2r5GZeXfur0A4z6fIsh4BNHF/wD4T9erB+HXhYodOuW8l4vB1MWv4XnLiO8blv2VXtoYx7kVQcaJSikn7ifCrm4BY/AXilb9yjgG1M2mhXrmZAd0hatPMUiTiSOeiiDjX0Hkh7NJrgFj/oBRrc+LY0DdbCrnMh9gIvl13e1Yblj25CT51A1bFUHGoDxvR2Q2eFHY7lcPvFy0bNeH924ErdU5TF38E8AmbuPf2MwWOz2Ceqv618VxiiBjojp/IDs1pfEi1+cP8JyCVd8viYvB1DNzANrXzfYU09TBau3pJPrWKZsVQcYg6/sGi/kuo1r/cKcC0km9Zi57J4j3dp2DtH2Myso7O2lD0nQrgowlSC5zPIiu8Xj+SDBBMneCyJUgzHx8sVpvp1JL0ta/r72KIGMgKuviPAbO70eCEHBewbK/7btq+khAEWRMsEu6OF8uFI81UDUsO56F4nwWbikvKuRR5E7+MKiSpWuDqAiyBh4MaOVc9g7P+3RgpWHZE5P4I2rqYgWACa5v6FY9X+1DsoWPOpoIKIKMLoSF+oSPOOBvAbyH39owLDuRuJm6CLDw6R4H9O3p1so5fjj0w/lEBjrKwFQHMPENTXwraNkcOXeDtT2Hqiu7WrWkXZ/n5ybskSJnblA9smzRPx37wt2HIa86fXv0NUFKevZAAn8TwM5hVgAB5xcS1l7AzItvghHqAZwIDxLowmmV2l/C4LMuyfYlQe4E0lvkM98PWOfqHfGWFROLln1QkhZCSRc3EfCJVmwm4kv+tWn9q/34lb3vCDJaPnQWgJYXOIFvL1h1WXE9MUdZz9zOoI+0ajCB52iN9PGDIYtutzpfXMb1FUHkvghm55fskakbODCcnmxU31oeWL6HguWBiZNZa4SqJj+euQwsBviofuo30jcEWZTPbN9gkiV8AhWe9lvPGvgL0xKS8m7mMl8E0U/8fAp4vk5EhxYqtb8GlE+0WF8QxDe/arwQEr0A5n/ziO5fDctu6Z6+2yvGzIm/gvAxt3kJ9DyDNw9lF/MJRrXunpITSll8hdd5gpTz2XOYvfZjrx0cBj+vAV8maBs74B/5hC729W1NXfw7ANlD0eOgMwjOKwB+wKDARGHg60XL/l58l3f7lq3TBDF1IbeQ/ndQmBh8Ozl0rjFsPzl/AJukNCGbzbhXVSS626jU3LNjg07cQTlTz871+fhZnQh727yFV8pbZbZFo0mSwOn863rJoHWWIKV89jRi/nHgtcf4oVG1v7ymfEkX3yXga146HOLPT49pTakgtb2Y8N1ixf7GWn7nMj8kosDtEZjpgE41CQocvw4JrpMEWZjLHOcQyVe5vgcDtgY+sWDVfz5WeGFeFB2GvIpkPBSthEOHGcO1W3wn66JAOZ/9GDPLesFeLyVqpGG7wlLbHGtaWc/8hwO6hoB0ELNTjrP34PDI3UFkkySzzhEkaC8PGSQCvwDwJwvWyN/dglbWM5cy6HTPO3jw8wWrvkWcAm/qmecB8nrJAIAvNaz6GW52l/TsQQSWlSN9qsSv0uBovNv0pfUH4oRDu7asUwRZkEvvmQraZQlY7KS1fYeeWWl5gbggv96WKR6Zy8BUH7AXGZY9rd2ARDG+pItFFMDehpbZ06+ucHlyZltOkbw6BvkBeK5B/PGhSj1ck9MonO6QjnWGIKPFpm8GUPDDioFHipa9k5/c6vNmLvM5EF3tJ8/MdxV7vB3XzHnvGnzbB+bPGdV60NtQKutC7lXfyg8DACWQ9omkFNXz82fdIYgu5K3AZ/wcBuhew6p51akdV0XwBp58Z6qRPqbbKRmLJ03MjaRG/s9rS+0ajt1gtNDIM8AbsdVT/NKw7M/6xyL+EusEQRbkMqdoRJcHgHupYdlBfgXfoWr0Feht7Htf33y4eRIOvmVU7dkBbGpbpJwThzI1M3Xf56+MX4BD+8lX2f6y75Qwc+JxELb1Hct8ilGt/6+vXMwFEk8QuXCdBv2NPOo9yRjID4BpUc8PLkat1ZiYfgUd3qGYZ2bS9fO3eQavtTqn17glU7BRzcmcD5Drg/bY8e0WZuAdkSm/KGSrOb8fmn9SivctLKnLt4CJPRJPEFMXNwbIzH2dwftEkWQXpOvUmNXwOEDXpTOZ66c+/cYLUayUf2y1/uapkZGjNeJjAGwXVGdU7Z9XFcPmBwHe1GfuPxuWfXBQ++Iol2iClHXxVQb8Uh3qDPpk0ar9OaoAlHTxZwIODKOPwM87hOvThBsGW3wVWsqndyMmmTpytP8r3LWtY+DPxQgXq+zL7pB2u2fF+OaVG18rWnbgbIYwmHZDNrEEka90NdJkiwLPD1kEPrZg1f8vajBNPTMDoDNb0UtAlYEHiPi2BuGpFOjVEWReXQ9vvir1vYX1N0qjvlEDvFGK8V5mkntPZP91z2aibrYw8YxipX52K7Z6jSnrmWMZ5FlHixkjGpx9CtWRRG1RXu13Ygli5sXNYBzgHXS6wrBqX4x6YazWFywRsFOzB9Z7pGHZNwSWDilY0rNXEPhkz2GMm42q/fGQqmMhnkiClPXMMezTdw+MJ9ix9y0ugyzY3LGjNJDeC6RdRYRYfCRc7ahsMAp2Tip2OP2jPAmbckrM8XuzReBjxkvn6VhgIlKcOILMnw6RekPIjU87eGHAoIOKVu2miHDyVDN/0gQ9lW6cA9CXujGf/xx8aWMkdfHQcu8sAX89wSRGi1/4PeM98sZm9m5J29eeOIIszGfPdZh/4Bk6wkVGxf6vYOGNTmrRlAl7O45zLrdYHKFdSxj4CzTth8WlK+9qV1fY8WZefAeMtbKCx+pgoi8XKzWPXolhZ+28fKII8sTkiQPZVENePbweVh8xQqSRdAJiM585AUwnhS0n1Kot3CzPw1cZld7t8GNApqM8DGBHNz/kywk4qd0Kwytkg6JEHIkiSCknfkCEc71vrfjkolX362/eleCYefEZMH8OoH06MyHfAaJZRsX+ZWf0h9Na0jMnk0ebt1FtPzAs27X/Y7gZOy+dGIIsyGd20FYVXXDv1Ar0/OoxXsjMnDgERB8j4u2Ysb3ftwOPsNtMeAxMjzvMNw91KZUl6DIMchUBYKeIdx1MSMZvYghi6uL7ANba8feOe1zE5+rhtqjkSwa8ntk+o0GSZdDRaBKBt4RDk0DYsjmO8SzAyxn0rAZe7hAWaQ4eG3l3/fGhBXBtDxd0IXdSLuBVJDEddRNBkCc2x/rZrHgKwBSP4Mby6tHJxRhH3fIqYupiHnm/ZVzyxoj93p2W4604+rCmTYkgSCmXOY58ttByAq4ecV8MUdkX5CrC4OOKVv26qObslJ5EEMTUhSye7PUl9umXHft9/V6JvFOLJKzeeZOw3gZp8Q8AW7uNla+ki5YdKp8trB1RyMeeIAH6e8t79ouMave/e0QRgHVVRykvLiLG1z39S0C/+dgTJMjDucN43/SqLZ9R1BETBEoD4n2kwW9TVuwf1mNNkCAP50z4dbFifzom60KZsQYCpi5+DeBID1Bi/7Aea4IszIvDHcbvvVZdg3Fo3L4HKJasQmB0K7CszeV6MOFTxYrtGeNe4hlrggS4j33YsOxQ3aF6CXY/zm2uSj/xqiDzP4ZlfzWu2MSaIL57PsYpFxpXoPvVLlPPzPTaM8/gO4tWvUOpOO2jHluCyDZpW+riZQDvcnPTcXD49GHb8xLePkRKQzsILJwiPu04uN5DxxsFy96IgEY783RqbGwJUh7I7MwaPejleC0jNt82okIInQK43/WaufUmgUZ8snedDxnWyL1xxCq+BMllTmGPWlcEPFSw7F3iCKqyaW0Eyrp4jD2qrxDRuYVK7eI44hZbgpRy4noiuL6+JeaLC9W6Z+p7HAHvR5vKucyPmeg0D99/Z1j2EXHEJrYEMXOiAoLu/n4Qh3arcmEcA5ckm8p5cRgz/uBh87Bh2bk4+hRLgjy9NTasj4hmCRy3Q4O2zTRr5TNxBFXZtDYCi3LZbRrEi71wyaTtjTpVgbKdeMSSIOaAeD+0ZuMat6NuWLbXxql2MFFjO4CAqQu5j8W9EZGDbVutF9wBc99WGUuCjDZukSVF3Y6nDMsOUKi5k9Ap3WEQMPVmdu973cYw6OAoq1+Gsc1LNpYEKeezp7FHf0EGfl+07E9FBYLS03kETF38DsAn3WYiotMLldplnbck3AyxJIiZEz+AV3GGHpX1CQetkl4TAd+0oZhmRcSTILqQpTJdX/sltUpfP1NGNgVlkFeN5N8ali0Lc8fqiCtB5Bd0ryREeT8rAHrPaAn+CoEqDLZAqDCzBdYqG3Btbm4YK2KF+DpmzPJJWO/NVHaPEXLyIMoTy1fzlAdYvqLPA/QSwLL8q3xI93pufMiI4YffWBKkpGeeI9Dmkawlwi0Euslp8NzisC2JpY42ESjpmR2J6QAm2p/Ae7aprjlcNjgqxqxTsLQrVgRpNuJ0nONB+GYUoI/VwcBjBL47BfrpoGUv6MQc66rO+boY0sAnAbQvAUMd8ZNxITRtVpwagMaCIHJ7JlJ8PDEdD2CjjoC/hlJCsyXaDE3YMwYX4/VOz5dk/fO2xobrj4izCDgraL/0Nv19lYlnoUGz4nDF7ylBVn0xb/bYk3k6no1w2gR93OEEzJfNZYxK3bfFcyfmj7vOBfnMicQkyTG927bKxjvQ+MciVb+gl1/Ye0aQVeU4cX6YHnsdDNKtgHNhXFOuO+j3uKrNXGYnJrqIANnZqqcHAY8x44Je5d31hCDttC/rYLTeYqKvFGP4saqDPr9D9YIBcZimYRaADbs5r/9cPNOw6vI2r6tH1wli+nzj6Kr340zmMK6ZXrVP6LUdvZi/pGdPJ/ClvZg74Jy3Gpbt03YvoKaAYl0lSFnP3Mag/QLaNlasBkaFCPdpDb6SSHuphtrLQ8N4uTwwcTIwMrmRoskEmkzsDHJ7b1seNSzbtc9Fi/bHelhJFzcScFCLRpYJfJtD2kINvAwNXgakl8k+IPMHsEkW2U3q3NgMKToZRLsRy+8jyLY41z8My35/i2NDD+saQcy8qKD5ESn4wcCbAO4ipquMas0reXFcpYsHslPrmrMPiD5MjKOCz9yUZMOytZBjEilu6oJbMPwGDfR3EM+ZVrFLYcebuezBRHwyA3sDWC/ceHrJsGqbhRvTmnRXCGLqQr5KdS2+MNZ0Ap5mxiyjal/UmlvvHCX7erOmncmMw0LovNGw7ENCyCdOtKyLRxnNniWBDmb8keHMnF4dmRtoQAChsi7OY+AYr1q+71TDLxhWPZqPyR42dpwgpp6ZIz8uBcBJikginWhY9m8DyocWK+fEkQ5wFhEC7WdnotPX1Qd3MyeuBuFzQUAkxgMNYOb0qv2bIPKtyJTzmRPBdCkDE4OMZ+bLi9W611beIGo8ZTpKkLIuvsvA1wJaeWuqkTpxcNmK4YDybYmFeVlAjMMKVftPbU0Ys8GlfPY08thSsKa5DLqyaNW+0A0XRmv6ypZygfb7dPoHrGMEGf3OEWhRMXBB0bLlN5GuHkFJQsCrzLyfUa3P66qBHZrM1NMfBLTbEeCXmoDzC5Z9QYdMcVXrV7RjrYFMh7TyjBrEp44QRLYZS78p5jL738Yw0wHFau3WIMZ2QsbMZy8H8ykBdHf9FWMAm1oSKeni1iAfAXtFjtVOBey/DmY86LzL3rMT7ek6QpDRhy7/KwLjO0bV7khiYpiVU9LF+QSc5zuG+MSkp6WMtqj+mZ+v3bi/97NBng/SrUrKdYrMkRNk/kBml5RG8g2HX1GFWP0iByGJzN3ShL17UhMcF03Fu0dscX+A3KobDMv2alsQZG1HJlPKZX5M3nW15Fw2ObxHYbj+UGQTdyLd3dSFfO7wfDUqF1rBsl038EfpYBhdJT17BYFP9hrTqV+qMHa2KhvkRwBArMjx9u1WLnMnEclvJl7HbMOyD20Vn/HGRXoFWZTP7NBgesTHwNeJnQML1ZF7onQkKl3lnLifCbt66HutAew+lLD9JHI/Rwq4zydl/X7DsnePCsso9TTfbqXoDjB7fiB0iHecXqk/GtXckRKknBcXsX9fulOMav1/o3Igaj3yO4nsWuWlVwPPnNaDxLl2fA2SIOowjurkd4527JdjzVzmiyD6iecVnvDdQsX+RrtzrR4fGUEYSJV1MR9AwcO4pSlhbxv3e3gzL/4IhtelOnF1uUq6eJQ8vpjLL+TFqn14VAurE3rkM1TDFrLvoczlcjvKBcueToAThQ2REcTUhaxI4f2VNSHlekoD6b1I0+7yAjjqS3kUwXTTEaShpsbOXtMiTB/plD9mXnwHDL8rxL9HlY0RGUECPODWNcK2rSS2dQpsL71+HxEJ+HrBsr/XC9vCzun31TxJjVAX5kWx4eBJIvcdqAS6qmDVPF+2BMUwMoKYupCv1z7gNjEB1xYsW+45T8Rh6tkvAfwjV2OJ7jIqtQ8nwRlTF7cA+Kh7bPikglX/aRJ8kTaWdTGLgeM87H3csOzACZiezzRRgCJz/lOakLWPXA8N2n7TrJVzopivGzrm62J6CpDPVK7H+o69Xtzrbs2bhPU2SAu5bcD1aDg0ODRc86y+3g3Mg86xUJ/wEQeOTJVxPbhhb1pcBs81GWS+SK4gZX3CvgzHa/HHtv+DF0hmXpTBmOYmk2L66GC1dlsQoHslY07JHgCHb3abn4GnigksBG7qQrZ1m+R6VST6eKFSc/U7aDwiIYj/Byj+m2HVg6a8B7W943J+nZEI8b818U/V6M1e73aDZ+rZuQDv4UH884sRJFlGRJDslXKxuDtNVxhW7YvtgtLt8X5V5hGTXDIvXPy+TRHRqYVKzfPbQrdxDzJfSRezyPM5hK40IkjRj4Qgpi7kdljX/czEdHahWpsRxPE4yQRoHfZzw7LlTrjYHqYufgHgM24GOozDpidwr4uZE98A4TsewEeyGzQqgsh9Eq5FDhh0UNGq3RTbVeRi2Gji5QPul3GaW7Rqe8XZL1PP3gPwh1zv1Zl3LlTrD8fZh/FsK+XF4cT4vYfd8wzLdn2rGtTfqAji+cDEDSoUl9UWBjUqLnKLJk8caKQaVQ97lhqWvVVc7B3PDt9iGZyebFTfWh5nH8azTX4PcRhe9ZWXGZY90K5fURHEsyqGYdmRzNOus2HHM0BlXXilLMS68knS7feLl081lkhiE8nCNXWx1Cs/hpzUgKyR5Odw3M4vnjQxN5JuWO63WPEs2b+mvWY+8wKYXDNgkxobWQuNtYZX/YJIru4REcT7lVvD4V2GIt7I0g0ylfLp3Ym1ez3m6moRs1Z8LuniKa92BY7Gu01fWnd9zmplzm6MKQ9kdmaNZKOlcQ9GNM+HERFE/BzAZ90fBJNZFcQvAZPAcwpWvdVKkd1YRzD1zB0A7eMx2RGGZcsGm4k6FuTFYRrjDx5GR/KGMRqC+GRYyu2ShUrt8kRFQOb85LJnM/HFrnYzrjeqtusr1Dj4W86LX7FnVUk6y7BqM+Ngaxgb/BIwo/pGFQlBSnrmJAJd6e4g/8iw6meGASAOsqW8uJ4Yn/bwqycVx8NgY+qZHwH0pU7/0oaxKQrZsp65lEGnu961RJTlEA1BctmPErHMGHU7ErfBSDri3yuRzjCsWpyrocM3KxndKeEZBSnW1GHmRBnU+Ty5SAhSHcDENzXxlhcIScsYLevpDzE0z33zKeC9g5btmfEb9cIIq688RRjswLO4tMPOXlHW2g1rY1j5bmZaR0IQ6aCZFzeD4dq7IQmJfWv9QuXFN8H4tkfwlhiWvXXY4PZCvqyLRQxM9XiWikV9sqDY+F4VI9yrExlByvnsqcx8mZuTSdq11iS8zyYjBq4tJmQDmF9WMoBHDMveKegC7bVcN3d7RkaQdWrfsy4+BcCzwjyDjyta9et6vViCzF/KiU8T4XovWQafXLTqVwXR10uZbtcLiIwgqx5qk185o+lHPnsXMXslIbKT0raavmRlpZeLJejcT289Qa+POH62JuIq0u2KM5ESJEjtJdnpqdDBHhNBF42bnJnLHA+iazz1MF1tVGsntjtXN8cH6QUS96vIgpw4SiP8ygu3qGuWRUqQRbqY3gDu96rex4wHilV7t24ujqBzlSdhU06JOSBs63k7Qs4Hi5URWaUwMcdoy4O/+xj8DyelHRTHK6NMvDTz4n7y7hgQedXLSAkiwQ9Y2f23hmXLOlqxOsp69ioGf97LKCL8qlCxj46V4QGNKeXFrwL0aoxVUfHVrpl69gr41E1mIJJttmvCGTlBZPU7xxb3MTDkE7dYkcQ3dWHUmaRVZ1kzBgv07H4a2L/IBGGWUbEDtWYLyM22xPxrHgAMzKeJ9m5GGf9qa7IxgyMniNQftAcFmH9iVOunRulQK7rMnLgQhP8KMDby6uEB5oxUxNTFbAAH+yll4HtFy/66n1ynzwchR9MG4hOMSt372bEFYztCkCZJfL4jrLa1V+3XVs9f1sWfGTjQFzvCv+DwPklvwzaaISBrSk3w9XlVp+GeXUkCd/8i3GJU7I/5+tOCQAcJ0uyDJy/nvj2we0USMyce93sgX42pRvjktIrtlV7dAvy9GWLq2TMBDlREg8D3FKz6nt221O9j4Br2vMrgjxStul/bjZZc6BhBpDVB7+ulbFc7qU6ZsDc5zrU+VcLXADSZKeFeK8Kv2smYsUtSjnb84PDKu1taZSEGjW4TlkXQjwgyrNMdiDtKkOatVohe3PIVsAbM7OR3ErkwCDhKtmsIEgAQ3W1Uan6djQKpipuQqQvTp13FmiY3wPhNJ/e/yN4sAM70aWD0tk1EdHqhUnNNb4oC744TpHkl8fnCPtYR2asiBWdmlOX4SwPiaE3D9xmYHAI4B4zDjaotH2zXuaOcE4eC8LvAPxarEFgGB18xhm3ZyzySY2EuvSdDk8Q4LITCSOpe+c3XFYI0ryS68Kx84mLoDQDdqxHf3krbhAVbTcinG3yIw85h8O9v544V811Esjp9MnKv/IJeymWOI007FswtXxmZ8KDGuLnh0PXTh2uL/OYce37+QHZqWnM+7BDtE+DbzDvUd6tSTtcIMkoSzwqMPiCXSb7DJ60Mh5eNMC9PI71MVktZMmX9Ld5ie8s0tC3YcbYgoi2Yef+2SDG+MY8DdO0KrXbd9kvxathF0Uv5JVOwUc3JHkfgYxnYLmJb7iPgJmZ+jjTtOSLn2TrEc0NL33xOVh8BRiY3QJNTKZrE7AwCJOs0t9RXiaV1AAAFEElEQVTElYHHipa9Q8T2u6rrKkFW3W5lTydwrHfhBQB/qex3MqLx7KGl9ccDyPdMZOGUzHYNhw4l4FgAU3pmSBQTM64xqvYJUagKqqPrBJGGjd77yiYoGwU1NLZyhFuY+U+OJmbLX8w42CmvqLWGfShTkxiujXPiYGtAG95ioq8UO/xAPp4tPSFI83Yrl9kJRLL4cAwCyC8A9G8Bg+Um9ioBf2LGn3r1UC9/eBzCoRpwSPs/PpFg0iakzeG3Mjnf7lVyaM8Isho5mZZCTGcFyN2KAuyxOp4FMLOxgT0z9eaEDxI75zDwiXYnYvDzBHoCjCeh4fF0gx6cGnEHJzM/YSsNzvYOsAMYst2Y/NuyfdvxFyLt4lRm5X11W5ypAWdEoTesXQTMZ+IZRqV+ddixUcr3nCDSmdEER0mSs30a3UfoO890UqmZY1O75X4QIpJE8Uu2DGVLkzRMjxLhQQK9wnBeIWivOGi8koL2SobSrzC99YpUWmust0mDRjYGnI01pDbm5r/axgzeeLSK/o4UARnGOPAUmC8xqvVZa/5/acqEKSmncYYD6krZJgJeAzBDE/aMOLQLjwVBVgdk1X4SPolBH/EqlxlqZa4tLKuY/wIOfmkM27Lf9rjHvK2x4fojQpL1HALWb2O+JAx9g4FL0sK+2GtBmgPi/dCa1TNloTzX1mdtOPwowHNToJ8OWrZX1fY2pgg/NFYEWeuXS8/sqDF9lDXaH97bX/28HgHwEEA30Ejtl4XleMlvwNu3fwPi/aw1SRLrJjlB/RkrR8B17OASrx+LsWPkprJGOvtZDSz38+yMoBkJ4xnJuIU0uinl8N1Tq/ZTrfrRyXGxJciaTi+fhPVeS2X3ADl5ItLByAOUB1gfzaeSewBeB5p7AeS/zzLR39FozBNi5LFtnmletls+FuSzH9dYpoizTBNv+z6/ZUOiGfgsg27UCLPbbXL5pI6NM5zdmTT+ALhJls1Hb5Hftca/FYAsgCsgVJjZAmuVV7g2d/dhrIjGpc5pSQRBOud+OM1Pb40NR0YyBzugQ2jVnopMOA09k64DmE3gGzVRnx2He/ueIRFyYkWQkICtFl+oT9iamQ9hzTkYTC2nbLQ4fbBhzHeBtNka6MZp1spngg1SUmsioAgSwXpY1atC2xVgWXxN/hUjUBteBeFJOJhHGj060nAeTmJPlvBOd3aEIkgH8JWdqTjd2GWEeVcibZdR4vjv4AtnywoC3+uA7gPoYeLUo0nsNRjO5e5LK4J0CfMF+cwOmkM50ngzh2kzjXhTlq3RGJuBsCmAzRhotkoj4EXIP8ZLILxIxC86TC9pxC+yQy82NLaGKvXHumR6X0+jCNLX4VfO+yGgCOKHkDrf1wgogvR1+JXzfggogvghpM73NQKKIH0dfuW8HwKKIH4IqfN9jYAiSF+HXznvh4AiiB9C6nxfI6AI0tfhV877IaAI4oeQOt/XCCiC9HX4lfN+CCiC+CGkzvc1AoogfR1+5bwfAoogfgip832NgCJIX4dfOe+HgCKIH0LqfF8joAjS1+FXzvshoAjih5A639cIKIL0dfiV834IKIL4IaTO9zUCiiB9HX7lvB8CiiB+CKnzfY2AIkhfh18574eAIogfQup8XyOgCNLX4VfO+yGgCOKHkDrf1wgogvR1+JXzfggogvghpM73NQKKIH0dfuW8HwKKIH4IqfN9jYAiSF+HXznvh4AiiB9C6nxfI/D/AAw6H4xSxE4XAAAAAElFTkSuQmCC;" parent="1" vertex="1">
          <mxGeometry x="469.14" y="783" width="50" height="50" as="geometry" />
        </mxCell>
        <mxCell id="atDhAGsUYtWK8VnYLnzi-69" value="" style="endArrow=classic;html=1;rounded=0;exitX=0.483;exitY=-0.193;exitDx=0;exitDy=0;exitPerimeter=0;entryX=1;entryY=0.5;entryDx=0;entryDy=0;" parent="1" source="atDhAGsUYtWK8VnYLnzi-59" target="atDhAGsUYtWK8VnYLnzi-68" edge="1">
          <mxGeometry width="50" height="50" relative="1" as="geometry">
            <mxPoint x="420" y="770" as="sourcePoint" />
            <mxPoint x="340" y="830" as="targetPoint" />
            <Array as="points">
              <mxPoint x="594" y="810" />
            </Array>
          </mxGeometry>
        </mxCell>
        <mxCell id="atDhAGsUYtWK8VnYLnzi-71" value="" style="endArrow=none;dashed=1;html=1;dashPattern=1 3;strokeWidth=2;rounded=0;" parent="1" edge="1">
          <mxGeometry width="50" height="50" relative="1" as="geometry">
            <mxPoint x="640" y="1050" as="sourcePoint" />
            <mxPoint x="640" y="520" as="targetPoint" />
          </mxGeometry>
        </mxCell>
        <mxCell id="atDhAGsUYtWK8VnYLnzi-72" value="招商活动小二" style="shape=image;verticalLabelPosition=bottom;labelBackgroundColor=default;verticalAlign=top;aspect=fixed;imageAspect=0;image=data:image/png,iVBORw0KGgoAAAANSUhEUgAAAMgAAADICAYAAACtWK6eAAAAAXNSR0IArs4c6QAAEjNJREFUeF7tnQvwdVMZxh9DdFERRRIjlyapSJFSqSjXEdVUGEZJ0tVdxkTTSCiV6F4jRTfKiOiGlESikJIwlEiJlKQymh/rTMf3nXP+e62991lr7/28M3vO32e9a73redezL+vyvkvIYgSMwFQEljA2RsAITEfABPHoMAIzEDBBPDyMgAniMWAE0hDwEyQNN2sNBAETZCCOdjfTEDBB0nCz1kAQMEEG4mh3Mw0BEyQNN2sNBAETZCCOdjfTEDBB0nCz1kAQMEEG4mh3Mw0BEyQNN2sNBAETZCCOdjfTEDBB0nCz1kAQMEEG4mh3Mw0BEyQNN2sNBAETZCCOdjfTEDBB0nCz1kAQMEEG4mh3Mw0BEyQNN2sNBAETZCCOdjfTEDBB0nCz1kAQMEHKcfTyklYP5two6Y5yTBuuJSbI/H2/hqRtJK0bCLFa+H30Iqb8XRJEuSn8Xi3pLEk3zN/k4bZogrTv+2UkvShc20pav2aTv5B0pqQLwnVvzfqsPgMBE6S94bGmpH0k7SjpiS01c4ukb0j6sKTrWmpj0NWaIM27nycGxOB6QvPVT6zxtkASiOInSoOgmyANgilpZ0n7Snp2s9VWru0yScdKOrmyhgvORMAEaWaA8KT4RHidaqbGerXw2rWXpD/Xq8baJkj9MfAcSSdJelr9qhqtgVmvXSX9vNFaB1aZCVLP4a+SdGq9KlrVvl8SNn6z1VZ6XLkJku5cPsJ53++CYOtHumBoaTaaIGkeeYOkz6WpZtPaXdKJ2VrvaMMmSLzjnifponi1IjSw/eIiLOmIESZInKPWkXRNnEpxpdeW9LvirCrUIBOkumNWkHSOJGatmpJ/SPqxpOvHLup+yti1qaRlm2pQ0iWStpL01wbr7G1VJkg114ITM0HbVys+sxTTrmdL+oGk8yvWt5mkzcPAbmIR8nRJO1Rse9DFTJBq7t9b0gnVik4txV6p48P138S6lpL0NklvD0+YxGoeUKNPLG5aZiBggiw8PB4ZXkuevnDRqSUOD8S4vUYd46orBqIcVqO+qyRtJOmeGnX0XtUEWdjF+0s6ZuFiU0u8S9JHa+jPUqVuNiimCn37UKryEPRMkNle5k7NRy2HnFKE7Se/SVGM0KENtpWkCJMDPEWaerKl2FC0jgky2z3vkfTeRA+uIonzGvMQ2ro5sSH6+L5E3d6rmSCzXfxbSawbxMp24dRfrF6d8rR5RkIF9PGpCXqDUDFBprv5ZZK+nzAK+CBPfeokNPcQFdpO+XCnr+fWbbyP+ibIdK8eLemASKczlbtxxnd6vpnYSsJCY4zQ14NiFIZS1gSZ7mmCIzwrciCUsGs2ZZcxfd0gsq+DKG6CTHYzd+DYIAgcd2VG6L7MI4fFRJ4isSvu9NkhhRZxngkyeTSzUn1c5EBnreTASJ22imMLaxwxQp9Z6beMIWCCTB4OH5f0lsiRsnXYYxWp1kpxbCHIXIzQ57fGKAyhrAky2csMLgZZVbm74R23VdudVY6dwo+KqIg+E9jO4ifIgmPgSknrLVjq/wXYBs8W8pKEHcNbRhjE3qxnRJQfRFE/QSa7+S5Ji8bKnTUgSnw9YfcxO3arCrGAH1O18FDKmSCLe/pxCesYJW7620/SByMHMn13VHm/Ys0cNgSXvjxyYBF/t7TQOhyIIoBcjLAWwpqIJSDgJ8jiQ4FBwppGjJggMWh1qKwJsriz2K4RG7KzL69Y9N1b3/2KteAtjGlbThJWlT58pP8zclq4KjadLucnyGT3ccgpZgt4H6Z56XNp8YWzk8sEmeyC70raIsI7d0oix2BJwmzUchEG0edXRJQfRFETZLKbCStKeNEY2UTST2MUWiybEv2RPu/Rok2drNoEmew2Dh1x+ChGDpZ0VIxCi2Wx5cjI+nMe9Io0dX7FTZDJWHMOJHY9oKTvkNhtJqBAn6+Y39DrRksmyHQ/cR4k9mTebiGZTk7vY0NsFHf6ulZOo0tt2wSZ7hm2abBdI0a4A79AEjtpcwj7xy5M2HRIX2OPF+fo39zbNEGmQ75NYmSSnO/yqUEb6Ou35z76OtCgCTLdSSwUcgQ1JZVzm9EUp1mcGmXxTyEwnkOQTkDWBJl9F/uUpD0Tb3TziKo4Mq1OdEX6SEZciwkSPQaY2SH06NLRmg8qsHjIImKbQhupuT7uDYEmPHs1xUN+giw8dAkOzetLqhBdJHb7fNW2qLtOmmf6tm/VxoZYzgRZ2OuEHuUpErNtY7xWUjG/OuFsxkKW1U1BzVYUwhQ5HdsMpE2QhYbhg///CEmHVCs6tRRhTFmfOLlmPbtIYq2DjFN1hD4dWqeCIeiaINW8vKqk8xpaTPtZCMlzmiQCJVQRAkjwxCDqSBM5Eq+VRFq3P1ZpfMhlTJDq3mdwfqt68UoliYBInbzucPGxjU/48B5dRG0n3m+T4nWPimiaIBWBCsX4oO16Rib6UCcrVRxiHS9tgsQ78GMhP2C8Zn4NUsHVmZHL34M5W2CCpAFOBJNXpqlm0yLCCd8xlggETJAIsBYp+hVJr01Xn6vmlyXtNNcWe9KYCVLPkWzRKD3XODayncSSgIAJkgDaIirbSzq9fjWt1IBtKXkLWzGmi5WaIM14jTMgnOmOiYTSTMuTa7lG0hvD2ZA22+l93SZIcy5mMZEpVFKg5RSmcI+V9IecRvSlbROkeU8S3QSSvKb5qmfW+PWwvnHRnNvtdXMmSHvuhSAQBcK0KRCCpwYEsTSMgAnSMKATqiMHORsL+X1uQ82xn+sHIY87v5aWEDBBWgJ2SrWrh+iFZH5aQxLBoh8vaZkp5TnQRCDtv4Tjv4QW+o6kG+dr9nBbM0HK8D3RSEZkwaIRKcj6ZMmIgAmSEXw3XT4CJkj5PrKFGREwQTKC76bLR8AEKd9HtjAjAiZIRvDddPkImCDl+8gWZkTABMkIvpsuHwETpHwf2cKMCJggGcF30+UjYIKU7yNbmBEBEyQj+G66fARMkPJ9ZAszImCCzAf8ZSWtNOVaeZF/xyKS2nDdOvb36N/Gf3OlepsPagW0YoK044QNJZGrnLPqXKu104xukvSjcJGj/ZcttTPYak2Q+q5fRRKEGCcFT4wcQmxfCANZLg1X2wl8cvRzbm2aIPFQLxkiFHJCcESM+Frmo/FvSRzJhSwk6Tx3Ps32pxUTpLovyeZE6E6uUsL7VLf+wZI8WQhBSuhUJ86pgJ4JMhskTvpBCDJEkTKgL/KfQJQRWfhvywQETJDJw2LTsafFk3s+cniSjIjCE8YyhoAJ8tDhQDTCnSW9ZKCjhAgpp0j6/ED7v1i3TZAHIdk65M3YwgPjAQTODomCBh9SaOgEWT8Ed9vVxJiIAJHrCWM62A/6oRKEVW0yLXE93OSYiQAhiEg7B1EG9zE/RIK8IxCDwG2W6ggQzRGSkDhoMDIkgjBVyxODrR8lyF1jAeK4S4+CxWEb0RZHgeRGfz+mBKMlnRqIMogg2UMgCK9QvCLsnWmAsYp9QbgIGUoYUchAWNEYITzpiCyEMH1RuJrImx5jB2Xvl7TfELLl9p0gbAWBHC+OHQE1yl8Y9kP9RBLX7TXqqqLKk+b54Xph+K2i10QZkgZBlL81UVmJdfSZILsFcqzQMvBsP+e14/xAiD+23N5C1bN5EsJsJmlHSU9cSKHm/784JA7iZtA76StBPiDpoJa99f1ADMjR9lMitSvLBZJAlDa3ynAuZf8+JgvtI0FOC4MidVDN0vv9GCm6dsdkzWeHgM16bYATMv7m+tZrpUt9IwgHhp7ZAlJnSYJ4PC36kJKA7Lc8VdpYIOUbjL1svZA+EeSfkh7RsFdIVvPJgtM81+0ukxfvDE+WunWN6/PKxU7ozktfCEJG1yc16A0+uCHGVxuss+SqXhvWiDgm3JRcJekZTVWWq54+EOS8MGPTBIYsfrH/6ItNVNbBOkbbb1hnaUI+K+lNTVSUq46uE+RrDaVbvlLScZJw6NCFaeERUZZuAAxmFN/dQD1ZqugyQb7Q0EcmZ7WZeXFizIcOQY4Yc9NoYmsOU+5HZxnhNRvtKkG4w5EbvK58WtKb61bSY30CVHxJ0usa6CNHlzm52CnpIkHYg/Q9SXUf/wdLOqpT3spnLHf/A2o2z0QKB9N4ne2MdI0gxJuCHHVmW+4Jrw2Xd8ZLZRjKbuiv1zSF2cGtJP2rZj1zU+8aQereydg3VIdcc3NMoQ09VtI1IVRqqolHSDo0VXneel0iCIta3IFSBd2hBmNIxWyaHjeajRIrvTvcpFgnKV66RBBmm3g8p4jJkYLabB1m/VJjDn9G0p7Nm9R8jV0hCNOwJyR2n1i1fNhbmkWAw1t8eKdOlhC6tfhQqF0gCI74uaSUAG7XSlqn2XHh2sYQ4DWL160UOUMSmyaLli4QZK+w/SMWSHbd8kF+dayiy0chwD6u1EAOHOr6YVRrcy7cBYIwrbt5Ai67SzoxQc8q8QiwpnRkvJo4srtHgt7cVEonCE+AlOgZ3NFePzcU3RAIcGaGhcAYIXAFB7l+E6M0z7KlE+SYcJQzBhOSyDAl3IlpxJiOFV6Wc/C8Li0VaWfR6yKlE4Q7S2wujvdKOjzSSS7eDALgflhkVWw9aeMUaKQZk4uXTJCUGRIiihAn6pZG0HElsQhsHJL0xOqxnsJ5/+KkZIJwhuD9kYj56REJWAvFyTECUWKEfV6c+S9OSiYIYXVYTIoRjnj62yMGsebL8ooV+4rLrmpmwoqTkglCeMsYuU7SWjEKLtsKAi+XRLCLGOHY9EtjFOZVtlSCEKg5Npwl58jbCGMzL1/0qR18FxNs+7KQMbg4DEolyKoJH20HSmJa2JIfge9KisnWRYKetfObvbgFpRJkXUm/igTMK+eRgLVYnKf5LhH131bzjElEU3FFSyXIJiEQdExviD3LlnhLfgRiF3hZUS8y01efCLKdpDPzjw1bEGaxYhYMTZDIYZPyikV0EqKUWPIjELui7lesSJ+lfKR7kTAS5BaLxxLEH+mRzkiZ5vWx2kiQWyrOa/sNkmLCl3qaN8EZsQuFNLFlwiJVgmlWmYEA0+2x8ca8UJgwpFLi7v5aEt8vljwIpLwaYykxBwgaXpyUOosFUMyjp0RZ97dIvmF2RWLKA7YIsVWoOCmZICSjvDkRMQIJEHa/U2EuE/taghqnAnnip6yGc8iKs+lFSskEATAiX7C+kSo8TXCcAzekIjhbj93TO0naRxJ53FOEGS/8VKSUThDIAUnqCjFlR1fduoauT+ZcUiJADK46wvFo0iwUm3qidIIA/rckbVvHC2O65DQn0SfvypeEgBAEP7NMR4BXXU538hrE74Y1gsUt2sqxkvYrGfwuEKSpp8g0P9wRPhD5SBxd10u6M1xs3ebvlGnnkn0/so09UASlHl0rBxJABC4yTrUh/5W0QekH3LpAEJxD2NHc+bfvmkCaEXkg0H0NjqKmyIh/WXTltWjab+q3Q93uEkfrkLqVtK3fFYKAQ5PJOtvG1fXPRuAUSTt3AaQuEQQ82dRGrF5LdxHo1JagrhGEYZESK6u7w6lflp8ceZAqe++7SBBAq5tpKjvwAzRgN0knda3fXSUIOL9V0vFdA3yA9t4enhrndLHvXSYIeDMFTKaiptZJuujDkm1mDYuThZ1NmNp1gowGBwSBKHW2pZQ80LpmG8TgdGfnj0D3hSDjRCHtAYSJicvUtQFYqr29IcYI4L4RZNQvVoMhyehastQR1QO72I1LHCyuS3vQn4d0oa8EGe/kmiFfCPuIuNjeYElHgAj6BKgmYQ5hlm5Nr6p8zSEQZFEvLB+ij5O9irD7nJ0e/T6sfJfN1ULIQAJVzozzdODvQaWWGCJBZo0wNuZBmJUkrRhW7cd/l5UEibjIpFT179w43yOJreVszJz0y1TspAu9QUtuxw0afHe+fARMkPJ9ZAszImCCZATfTZePgAlSvo9sYUYETJCM4Lvp8hEwQcr3kS3MiIAJkhF8N10+AiZI+T6yhRkRMEEygu+my0fABCnfR7YwIwImSEbw3XT5CJgg5fvIFmZEwATJCL6bLh8BE6R8H9nCjAiYIBnBd9PlI2CClO8jW5gRARMkI/huunwETJDyfWQLMyJggmQE302Xj4AJUr6PbGFGBEyQjOC76fIRMEHK95EtzIiACZIRfDddPgImSPk+soUZETBBMoLvpstHwAQp30e2MCMCJkhG8N10+QiYIOX7yBZmRMAEyQi+my4fAROkfB/ZwowI/A+WM2TnTsEPJAAAAABJRU5ErkJggg==;" parent="1" vertex="1">
          <mxGeometry x="750" y="500" width="60" height="60" as="geometry" />
        </mxCell>
        <mxCell id="atDhAGsUYtWK8VnYLnzi-74" value="" style="shape=singleArrow;whiteSpace=wrap;html=1;fillColor=none;" parent="1" vertex="1">
          <mxGeometry x="606" y="762" width="160" height="27" as="geometry" />
        </mxCell>
        <mxCell id="atDhAGsUYtWK8VnYLnzi-75" value="商品/SKU邀约价信息" style="rounded=0;whiteSpace=wrap;html=1;fillColor=none;strokeColor=none;" parent="1" vertex="1">
          <mxGeometry x="596" y="744" width="160" height="40" as="geometry" />
        </mxCell>
        <mxCell id="atDhAGsUYtWK8VnYLnzi-78" value="" style="shape=singleArrow;direction=west;whiteSpace=wrap;html=1;arrowWidth=0.35714285714287336;arrowSize=0.1486607142857153;fillColor=none;" parent="1" vertex="1">
          <mxGeometry x="606" y="822" width="160" height="28" as="geometry" />
        </mxCell>
        <mxCell id="atDhAGsUYtWK8VnYLnzi-79" value="quota扣减/回补" style="rounded=0;whiteSpace=wrap;html=1;fillColor=none;strokeColor=none;" parent="1" vertex="1">
          <mxGeometry x="606" y="829" width="160" height="40" as="geometry" />
        </mxCell>
        <mxCell id="atDhAGsUYtWK8VnYLnzi-81" value="" style="endArrow=none;dashed=1;html=1;dashPattern=1 3;strokeWidth=2;rounded=0;" parent="1" edge="1">
          <mxGeometry width="50" height="50" relative="1" as="geometry">
            <mxPoint x="-160" y="1250" as="sourcePoint" />
            <mxPoint x="-158.5" y="520" as="targetPoint" />
          </mxGeometry>
        </mxCell>
        <mxCell id="atDhAGsUYtWK8VnYLnzi-82" value="商家" style="shape=image;verticalLabelPosition=bottom;labelBackgroundColor=default;verticalAlign=top;aspect=fixed;imageAspect=0;image=data:image/png,iVBORw0KGgoAAAANSUhEUgAAAMgAAADICAYAAACtWK6eAAAAAXNSR0IArs4c6QAAFtRJREFUeF7tnQv0NlVVxh/KTMssTU2zxEtYmiiUkt3TLJEsiwJERTHT1NRIStIKTVPTUKOkxAuIgqJlGgrkBQu8oGGQF0AIEZIQQojEy6JY2vp967z0fsOcM2cuZ2beeZ+91n99a33/mXP2fmY//3PbZ+9dZDECRiCKwC7GxggYgTgCJoi9wwgkEJgDQW4jaTdJ3xf+9QczAisELpF0kaSLJX1+ClimJMgPSXpS+JlSjylwd5/tEThJ0qslndz+1e5vTOWYrzIxun+0LX8Tovy+pPPHwGEKgrxF0v5jGOc+FovApyQdIOm80haOTZC3StqvtFFufysQODf8oS1KkjEJwnrj6K34dDZyLATwpyeX7GxMgnxM0g+XNMZtbx0CX5d0f0lnl7J8LILkjB5s551QylC3u5EI/Iykn27QvOgoMhZBTpH0sIShB0o6cSM/oZUujcBekk6TdKtIR1dLuqeka0ooMgZBOAS8MKH8syT9WQnj3OZiEDhY0rEJaw6SdHwJa8cgyDMkHRlR/qOSHljCMLe5OATwFUaTOnmTpEeXsHgMgpwqae+I8n8s6XklDHObi0PguQlfuTZMs64a2urSBGFueEFCaUYP/jJYjEATAoweKV9hGnZcUyNtf1+aIL8t6c8jSv2zpB9pq7Cf32oEzkxMyYnQeOTQ6JQmyD9IemhE6edLYti0GIFcBP5IEn5TJ9eFaPArcxvLea4kQb5f0qcTSvyopI/kKOlnjEBAgEPBsxJoPEHSMUOiVZIgh0h6RURZjIztSAxpn9taHgIfkvRjEbP+duhYv5IEebekn48Y8gJJhy/v29miERD4A0l/EunnK5LuIemKofQoRZAfaIjX5y8ACy6LEWiLABft/iXxEmFNr2nbaOz5UgT5HUkvj3RK0OIDhjLA7WwlAh+Q9BMRy98uad+hUClFkPdI+rmIkgyP7EZYjEBXBJ4j6YWRl6+XdLeh7rCXIMi9Gm56/bikD3dFxu8ZAUl7SDongcRTJHGtu7eUIMgzJb0sohlzR7bqLEagLwKnS/qpSCPcW39E3w54vwRB3ifpZyPKMSz+4RCKu42tR4DEDS+OoHCDpF0lXd4XpaEJcm9J3BWOCQsr9rEtRqAvAveV9PFEI0+TdFTfToYmyKGSjogoxbVIX7nt+8X8/joC/yiJW4d1Qv6sh/eFa2iCpBR+kSQOeSxGYCgEuGz3kkhj3Ff/Xkn/0aezIQnyg5LIVxSTn5T0wT7K+l0jUEHgPpI+mUCFaPK/6IPakAT53cTVWbbkOAG1GIGhEeC++oMjjRJNnsqF0KjLkAQ5QxKjRJ2w28DhjsUIDI1A6g8zfTHNuqxrp0MRpGmoY7+a8ACLERgagaadU8KeYpf2GnUZiiC/J+mlkd7+VdKejZr4ASPQHYH3SnpI5HV+F4sqb+xxKIIQOsIFqDr5U0nPbtTEDxiB7gikojdolUPDf+/S/BAE2V3SJxKdkxmP9YnFCJRCoOl6BeuUWPhTUqchCJLai+akk8AyixEojUDqgt77E+FPxQmSSujFIQ4xMxYjUBqB1BVv+r6rpEvbKtF3BGmKhyEMgKhLixEojUBTDjY2kmJhUFHd+hLkMEkswuuEdcn9SqPi9o3AGgKpLJ78oY7FbRUjCPc7YifkbPtCIIsRGAuBVB5odOCmIZVzs6XPCMLowBlHTB4k6Z+yNfGDRqA/ApQS/7dEM60rCfQhSOpeMAFkrE8sRmBsBAhz3yfSKcGysXCo2lf6EITRI7bGoN4HbLUYgbER4KLUXyY6vbukz+Yq1ZUgTZfmia7kbojFCIyNAARgmvUNkY5ZF8fCom7ySleCkBWR2h51wp0QTtctRmAqBN6ZuE1IwsJY6tLBCAIJuCBVJ+w1s+dsMQJTIfDUhvvopCe9OEe5LiMIkbmpsrtkNOFo32IEpkKAU3OmWTeLKEDwbOz8bqdXuhCEqVUs8TQZTbgbYjECUyPw95J+KaJEdvGmLgQ5XxLRk3VCxCSRkxYjMDUCT5b01wklODP5TJOSbQnSlFmbSyvcEbYYgakRuEuYZt08ogjneLHEcze+0pYgJJ6Ope45L7Fwnxos97+dCJDp/ZcjpmelwW1LEBY+DE11QrkDEsdZjMBcEKBWyNEJZXaTdFFK2TYEISsitT1iQrkD8vJajMBcECCjyYWSbhFRiNkQCQ2j0oYgbIvFonNZuJNdwmIE5obA30n6lYhSjQlF2hCEgxXCheuEYp1cnLcYgbkh8BsNJdmoxswoUyu5BKFkGnvHMSGtCulVLEZgbgjcORDgWyKKUY4jVq0quz4I0bmx8w1qoVNVymIE5ooA5aF/NaJcMrFI7ghCTiEWPHVC1jqy11mMwFwR+HVJr0sox8H3BXW/zyEICeFSNQUfKominetyR0mPC1G9t5N0e0n86/Sjc3WhzdQL37wq/PynpI9E1ht3CtOsW0XMpKhsbe31HIKwACelSp3AumrYCdvB5Cj6zs3E3FpvOALcGiQXNPVB1uWtkvaL2Ba9AZtDEAqQfHek4SNryJMKEttw7K3+hiBALrZqYZ2DJR2b0J91NOvpnaSJINQUTE2L9g6jxXqjX00czGwIvlZzwxGoqwvyXWGadeuIbUSov6AtQajO8/RIg+wds4dcFeaCrDksRmAqBDgcrNu1OlHSARGlam/CNo0gV0q6Q6RByEOJq6oQ+0IMjMUITIUAu1Z106nHSjouoRTRIESF3CgpgpCFLpV4gdJWDGVVYQgjijJWFmsq0NzvdiDwKklPiZjKzIaZz3dEfv+8aq6FrgQhqpdcqCmh7AGMbBqltuOz2crSCFwv6ayGUhzo8CZJBw5BENYXN1nVh4bJO0SaR4sR2DQEHiPpjRGlSfaw0y3Epr/udXXPvyCJ3a3ak8dNQ8v6biUC75D0iIrlV0siXe5OZaWbCMIowrzskaExaoFw6ujAxK30q8UYzbkes6B9g0UfCsnkTqpa2ESQ1fNERHL7ysmoF+MjNiTs0N4mNRvKJYjRNAJbiYAJspWf3UbnImCC5CLl57YSARNkKz+7jc5FwATJRcrPbSUCJshWfnYbnYuACZKLlJ/bSgRiBOGyyaNClR6ymRBW8rkNQWhdd/IeUauEtKibIOhOmDa3MTm8oozdpulO9DeJEKgCsCmJBJ8YLv6Rd2En3esIQv026iusCyfnpPaZu9Tpjs443DUzVx5y1NV1vK2k/5q57pQ0qxZN4q44IUnRnFMzsanuKi66U+zzgipBqKfAldk62V/S38zEqDo1UrrPPW8wCS34KHVi3cs5XSPuVYIQd/XciD4Mmfx+rpLSnRAZAtHmKugWq8q1yboT7Drne0GpO087dK8SJFV05PWSHj9XD5OUyr7SmIN1YrvA9ZiIDnPXPZUMgSkvVWfnKinduZ57YJUgJPnlPm+dzP0vGVcsMbhOLknkFZ7Dx0uNfpusO6l3YuWY5477jow9VYJQHpfdk010slSxlGslEbU5V2F0JtFenbBAZ6E+V0npjs5s+Fw6U+VTuu+oQFUlCOVxUwVF5nxuUne5a/27zFl3RmeuKNfJ3P8Kp3THHub5p8+UICnddyR+qDoNqRmvSxhDOavYLteUGHBf5bIGBeaq+/dknDHNVfdbSvpKA+5s+jx/SueI9E229y8n9PoFSafU/VVlUXi/yItzXaizB89efErmqjtnH9UsgFU75qo7N/Le1oD7XHeyOJAl63tM+KN7eR1BKIRDOec6YS7PnPK/Z/YXgeTZlIBLyVx15xCW6sCbqDtnNE2Z/ZkicsX1ipn5TEr3syWRY7o2JQ9Xa1Onn78p6dUzMrapduK6qnPT/f4hVU0OnCTje03OgyM9880h6z+lwZvktyT9VdNDI/6emoVULNgz0iflBp8dIwj/f4okEsPVSVb53BGNbZPJ0boP92FwoGQBzLWu2PhhhzQWLTCcVnktNel+48ZCbGeHfLykFo3JXP4Stxk9VrZssu5zGUUoBc5f4DY5mF8sia3TqaVJ951KesQIQgEconhjVaXm8pe4zeix+jCUsqbm4tSyybofJYkka22EzIcUvDmnzUsFnm3SfadiOqmzAWoswPqYkAQ4dnJdwK6bNHmQpDd07GiTdZ96R6sP7hS3IUp2KmG7nAPlmHxG0l7rkd8pgnxbGEWqFaTWG49leC8NwH1D3H6ffqbSnS10ttJTwlkU+MekrnBRHyxy383RvamtEySR/nNsIZKi6coDO7jE9N0oTafLTWsRGtpH0qkjW1str1XtngTFHAJxESYlY+sO3l9r0ImCRaTGjG21r16PZdcv9SlydCeX8xGSXtugxMMlnVxK0Ui7nwg1M2Pd8ntGD6aC2QT5RkmkG92xJ5wQ0s2Tdr60sEhl7p6S1UWdL0p614x0Z3OgCSM+DkVRCc2gzmPTJTWir5vwGOKbpIJY19tf7f6wpRsrQbB6fizd2UqHjLE6N0l9mkYQXsZotn0JK0gJc2PujBB9OrSgJ4urJtDpl6I+qx04HAxHaxJ0J6K2RFBdG90PlcQBFsJc/YwmxUOhGHAvoTvdN61FVyoSzcDogTCd4QQ9FpGxeocI7JK6c4i5wjMFJZEM2HkTySEIL6VSxq83ykeis51SyGd85NQjxMSgPNc3m4QPVL36eZgkDn6aZI66c8D2yibFJVHHnnr1O82fM95LPcKOEw4Wqwy7/m4d7kwB+cPaJFPrznQwOhXPJQhGkriBxWGOMKThlOxadJW7BGLkjBr0wdyd8r91kioBXH1+Ct0ZKWLRvKm7IlXdzwwk6XM1mq19iNEUQrLqO4V76gJeCd0J/GShnav7uZLuk3LQNgShnTYfi+f5YBR3J94oZyHPKLH+8+2Z7GLXJ1a9dNUEjs+iPFfQnR8yc+TovkeYjuLoTEtjZb6q/efo3hZ3Pjy4M81B96bdm666U9GYqNiUbLLuncqjMeVh8dtFWJ+sfpjS7BqCHwmArGZSyW2/zU3Hp4W6ELltrz/HVGD9BwKs9OZf4nvaShvdSZrxlrYdhOcJFFzHfgjdKTTDdnuODKk765t1v+mCe+PIsTKq7Qiyeo+pzGmSbpaDTsFnumT84KCLXRbuvkwpXXTH0QgUzR1ZS9nHYduq+ExuH3PR/Z2SyICTJV0JQuNsn3GSfa+snoZ9iCR2LNw57+giDwxrpNi8v0ubue8wCqH7m3NfqDxHBCrTluyP3LGfute4MsCuExsCXQTduUBVLX/Wpa0u77Q+YO1DEBRkUcS2Kgv4m3fRuMM7HKKxM9U3Idk3BZKgP+c9Ywh/eSFHX93R9ZCQaO5OYygeDi8hR1MUQI46Y+vOGphjgta3YfsSZAUGdwJwNAq1l5LjQxH4odNZsotBwgTiykgkVkJK6c5FJA5P+SlFlE3WnQQkTKe7zjQ6LdJTDrR3qEFNsjBGl77C8T+FFWE+UbglBX0PCHNr7i70FWrJk0KJLVein0sKRGGO/4sDJWpb6c6V1NK4r3RnyjhEcj+iEdi5Y9eyKeSl8ZsMNYLUdcRWJ9dgOc1mvZIjJACA9SQQZljkKu0UAsHZEmbOzOiYs2X7vyG4E9051+Cu9g0TKE9YEEQhpB/cm0IsVipyvYGrpuysbZrulCZn+srBJPqzVhpEShJkXUGuZ3LHhGkA/65+yPm0+iErydR3BWKgEtHMVi75qdhm5IczAGprc8aA7ox2UxCiyREo5X23Gt3XsWeU+FJTQxP8vk53zo3Ytr5y7afpnKez6mMRpLOCftEITImACTIl+u579giYILP/RFZwSgRMkCnRd9+zR2Aqguwe7juwqL14g0p1zf6DLlhBNkjI2caFOHxmFJmCIIeHcIV1Awmd4JTWYgTqEKgGO46WVWdsgrA3z357VTj/IMx9rtu8dtvpEIhdVeYAFuIUlbEJQkr510Usmlt6yqLAu/FsBIhejt34u7ek87Nb6vDg2ARJXZ7xNKvDB9yCV1J1X4rXHjFBtsDDNtxEEyR8QI8gG+7JhdQ3QUyQQq61jGZNEBNkGZ5cyAoTxAQp5FrLaNYEMUGW4cmFrDBBTJBCrrWMZk0QE2QZnlzIChPEBCnkWsto1gQxQZbhyYWsMEFMkEKutYxmTRATZBmeXMgKE8QEKeRay2jWBDFBluHJhawwQUyQQq61jGZNEBNkGZ5cyAoTxAQp5FrLaNYEMUGW4cmFrDBBTJBCrrWMZk0QE2QZnlzIChPEBCnkWsto1gQxQZbhyYWsMEFMkEKutYxmTRATZBmeXMgKE8QEKeRay2jWBDFBluHJhawwQUyQQq61jGZNEBNkGZ5cyAoTxAQp5FrLaNYEMUGW4cmFrDBBTJBCrrWMZk0QE2QZnlzIChPEBCnkWsto1gQxQZbhyYWsMEECsFS5pYiOxQisI2CCmCBbw4i9JR0s6VRJx2VabYKYIJmustmPVQu45pbcM0FMkM32/Azt66obXy7pzhnvmiAmSIabbO4jsdLfb5b0qAyzTBATJMNNNvORGDnOlbS/pPMyzDJBTJAMN9m8R2LkOD+Q41OZJpkgJkimq2zOYzFyXCBpP0mfbGGKCWKCtHCX+T8aI8eFYeT4eEsTTBATpKXLzPfxGDkuCuQ4p4PqJogJ0sFt5vdKjBwXh2nV2R1VNkFMkI6uM5/XYuT4bBg5PtZDVRPEBOnhPtO/GiPHpWHkOKuniiaICdLThaZ7PUaOzwVyfHQA1UwQE2QANxq/iRg5LgvTqjMHUskEMUEGcqXxmomRg/gqzjk+nFCFd58kiXXJSyV9sEFtE8QEGc+zB+gpRo4rAjlSDn+ipAPWdMD5H2yC/D8CMXB5whemBvDewk3Evt+VYVp1RqL/4yU9uvL7qyXdzgQxQQr77SjNx8hxVRg5Tk9o8XpJj6v5PaQ5yAQxQUbx4IKdxMjBCMCag6lSTF4r6Qk1v8yN6PUaxGuQgq7dv+kYOa4J06rTEl0cHRbk1UdyycF7JogJ0t+LC7UQI8e1YeR4X6LfoyQ9tcfIsXrVBDFBCrl3v2Zj5PhiIMd7Es0fKekZA5DDI8gaiN7F6ufQQ74dI8eXJP2apHcnOnuZpGcORA4TxAQZ0q8HaStGji+HkYOUPTF5iaRnDUgOE8QEGcSph2okRo6vBnKcnOjohZKeMzA5TBATZCjf7t1OjBzXh2nVuxI9MD0+vAA5TBATpLdjD9FAjBz/E0aOkxKd3FMSd82r0mYrN2WDd7ECOl6kD+Hq3dq4RNKulVdvCOR4R0OTj5d0TOWZocjhEcQjSDePHvCt3SSRUGFdvhamVW/P6OcWkj69RrAhyWGCmCAZLlj+kfdKekjo5uth5Hhbi27vGjLzE8nLiPOFFu82PeoplqdYTT5S/Pe3lfQwSaw5uOjEpae5iAligszFF2ephwligszSMeeilAligszFF2epx1YR5FBJR0Q+A/eTD5vlJ7JSUyJAwrk9Iwo8INxtL6bfLsVarm/4QZLeH+mTLcV9R9bH3c0bgTtI4ozmljVqstvG/3PSX0zGJsgdJX0+Yc1jJJ1QzFo3vGkIvELSIRGlSYK9R2mDxiYI9hCWQHhCTDiV/UD4y1Hafrc/TwTuEW4i7pVQ742SHlta/SkIErtpVtpWt78sBEgC8YbSJk1BkG+VRFLj25c2zu0vFoFXSnr6GNZNQRDsolb2sWMY6D4WicCtJV03hmVTEQTbuHyzzxhGuo9FIUAeLfJpjSJTEgQDIUjqltooILiTjUCAjPGQI5WgbnBDpiYIBpF68kWSnji4dW5wKQi8XBKHzKPLHAiyMvruknZf++GQyLKdCHA/hRN0SkbzQ3rTSWROBJkEAHdqBFII/B8YKbAFsM2uYgAAAABJRU5ErkJggg==;" parent="1" vertex="1">
          <mxGeometry x="-320" y="505" width="50" height="50" as="geometry" />
        </mxCell>
        <mxCell id="atDhAGsUYtWK8VnYLnzi-92" value="" style="shape=singleArrow;whiteSpace=wrap;html=1;fillColor=none;" parent="1" vertex="1">
          <mxGeometry x="-271" y="780" width="160" height="27" as="geometry" />
        </mxCell>
        <mxCell id="atDhAGsUYtWK8VnYLnzi-94" value="" style="shape=singleArrow;direction=west;whiteSpace=wrap;html=1;arrowWidth=0.35714285714287336;arrowSize=0.1486607142857153;fillColor=none;" parent="1" vertex="1">
          <mxGeometry x="-271" y="726" width="160" height="28" as="geometry" />
        </mxCell>
        <mxCell id="atDhAGsUYtWK8VnYLnzi-95" value="邀约商品/SKU列表/详情" style="rounded=0;whiteSpace=wrap;html=1;fillColor=none;strokeColor=none;" parent="1" vertex="1">
          <mxGeometry x="-271" y="726" width="160" as="geometry" />
        </mxCell>
        <mxCell id="atDhAGsUYtWK8VnYLnzi-98" value="确认/拒绝邀约" style="rounded=0;whiteSpace=wrap;html=1;fillColor=none;strokeColor=none;" parent="1" vertex="1">
          <mxGeometry x="-274" y="783" width="160" as="geometry" />
        </mxCell>
        <mxCell id="atDhAGsUYtWK8VnYLnzi-99" value="" style="shape=singleArrow;direction=west;whiteSpace=wrap;html=1;arrowWidth=0.35714285714287336;arrowSize=0.1486607142857153;fillColor=none;" parent="1" vertex="1">
          <mxGeometry x="-271" y="833" width="160" height="28" as="geometry" />
        </mxCell>
        <mxCell id="atDhAGsUYtWK8VnYLnzi-100" value="消耗情况" style="rounded=0;whiteSpace=wrap;html=1;fillColor=none;strokeColor=none;" parent="1" vertex="1">
          <mxGeometry x="-271" y="835" width="160" as="geometry" />
        </mxCell>
        <mxCell id="atDhAGsUYtWK8VnYLnzi-102" value="CSP" style="rounded=0;whiteSpace=wrap;html=1;fillColor=#dae8fc;strokeColor=#6c8ebf;strokeWidth=2;opacity=50;" parent="1" vertex="1">
          <mxGeometry x="-389" y="680" width="114" height="210" as="geometry" />
        </mxCell>
        <mxCell id="8-04DXXxIifRFXxXxJDB-1" value="" style="endArrow=classic;html=1;rounded=0;exitX=1;exitY=0;exitDx=0;exitDy=22.5;exitPerimeter=0;" parent="1" source="atDhAGsUYtWK8VnYLnzi-15" edge="1">
          <mxGeometry width="50" height="50" relative="1" as="geometry">
            <mxPoint x="320" y="927.5" as="sourcePoint" />
            <mxPoint x="570" y="933" as="targetPoint" />
          </mxGeometry>
        </mxCell>
        <mxCell id="pcb0knjUofV3J0k_9IlG-5" value="" style="endArrow=none;dashed=1;html=1;dashPattern=1 3;strokeWidth=2;rounded=0;" parent="1" edge="1">
          <mxGeometry width="50" height="50" relative="1" as="geometry">
            <mxPoint x="-410" y="1040" as="sourcePoint" />
            <mxPoint x="860" y="1045" as="targetPoint" />
          </mxGeometry>
        </mxCell>
        <mxCell id="pcb0knjUofV3J0k_9IlG-8" value="全托管商品OP" style="shape=image;verticalLabelPosition=bottom;labelBackgroundColor=default;verticalAlign=top;aspect=fixed;imageAspect=0;image=data:image/png,iVBORw0KGgoAAAANSUhEUgAAAMgAAADICAYAAACtWK6eAAAAAXNSR0IArs4c6QAAIABJREFUeF7tXQmUHFXV/m71JJOwBFABUVFBCUsgmX6vJxGQTXaUnenqibIjCoIKKIiixgVRFllEUfhREMh09ciOgOxLgCTT9XoSdkHABYFfEQi/hCTTdf/zJpOQZWa63quq7p5JvXNyGM7c7X1V31TVe/fdS0hHIgh0Cn+fANifgCwD2wO8gBkLyHHeIuYFDCwAaAEoWMBMCwC8BeAvzH1/AcY8310R/0oksNSoEQJkJJ0Kh0LAFf6vAXwplPCQQqwJ9DzAfyF2ntfkIeD5rop4MJrdVNsEgZQgJmiFkHWz5R+A6HshRG1FFgO4i5nvdjItDxfLbRVbQ6lebQRSgtTGKLREoW3uDuxkHgmtEI/g3wDcx8CjmWr10a55U5+Mx2xqRSOQEiTG+8AV/m8AHB+jSWNTBMxi4JbACW7pLrc/a2wgVVgJgZQgMd4Qrij7AIkYTUYxxSC+hQPnlnFjxt/8+7lbvx7F2JqqO6oJ8vlp8z5SrVY/FQS8aYZJ9QFPJbk65Aqfm/RG+rd+qjhMNxcr4pYmjbEpwxp1BHFl+RNgOhXAfgA+virqBPykqOR3krgarvAfA/CpJGzHaLPMTJeVKuK3MdoctaZGDUH2/eRzrRPWe/sUMGtybFjjit3jKbln3FfVFf4vAZwYt91E7DE/AqLLPCWvS8T+KDE6KghSyPYczuR8HUD493/iEz0/d1mc13Fgc/COOG0mbYuB+xymy4oV8YekfY1E+yOaIHnZuxtx9RQA+9uA7zjOXl3l7N02ukPpuFJdDeYj4rRZJ1t3MHBZSclb6+RvRLgZkQRxp/ZOpGpwCjN/OQrKRPzNop87P4qNVXWnt1W2qDrBBbakjTMWK1tMMwOm87p7s71W+qNMaUQR5PDJ89ZelKmeQghOAdH7YrgWV3lKHh2DndVMuFl1Moj1nsi2SdhP2OZ/GTiPWxed2/3YDgsT9tXU5kcMQVzh6xtZv05tFyOiN3lKHhyjvdVMTd9u/gZB66IpFDjjqsTj9H9BPB76Z6ZxATnjiIMNwDwJRNsMtvKWZHw1bCsCzi0q6TUwhoa6bnqCuLK8FzOdQsA+cSOVxCtW1Bj1U/JdWjwpk3G2YWCbpcRx2gGutTIX1fWQ+kTc5TiZc2f2rHmvXU1LkI6s2tBxgnPAdGxyV5739vzcXYnZj9FwpyxvVUVmGnGwA/rT52N9ktaMlIF3AJxbUvIHNYVHkUBTEqTQ1rMrO47+0A2/bGt+UYqekp3mas2hUWirfBxOMI2BnUF0KJg3rlNkN2UC5/SZvdnn6uSvoW6ajiCuLJ/ITD8noDVhZLb3lJydsI+6mO+U5Q8ETIcCOAzAHsk7pZcYfEZJyVLyvhrroakIUhD+pQx8JVlIqBtV5yxvXtufk/XTGOv9KfeZFv1E0WT5aJJRENM5xYr4dpI+Gm27aQjiZsv3g2jX5ADh+5mda9eUHKSObe5fxxk3YfpA+r1MDlfcAafldK885YkEfTTMdMMJ0in8yQy6m8EbJYECAdcScF2XkncmYX8E2CRX9BwPOHpPJpFvOgJeYaZTvYoojgA8jEJsKEEKwj+Kgd8ZRRxeuBIEwRndve2xppKEd99skkyuUJokiREFwMmekpc228yjxNMwgrhSXQLmk6MEP5QuAb8l4jO6/Ny/k7A/sm0uJ8rXAGwd91wI+EFRyRlx222UvYYQxBX+PQB2T2DSOi3i9NH2VywBnHBUW2X9dzJ8Ki09HrB2zD5+5SmZ8GJLzBEPYa7uBMkL/wYCkkjveJyd4IRSub3eRRPqc6US8uJm50wBMqeCKNYMZAJKRSXdhMKum9m6EsQVvv7eOCqB2c0JgC90K6nrR6XDAoG88Pfvf5rEu5J4m6ek1VEEiykkolI3guSz6mIi/mrss2B+YIyD6df6uVdit70GGswL/3QCfhbX1PWBrJKSSbxOxxXisHbqQpCCLP+Imc6KfUbMt7eMXa/zujlb6NKd6YgJgUJWHcBOcBGYNovJ5DWekrG+wsUUV00ziRMkL/zvE5DEqsZNwSfEYd3dVK05y1TAGIGOXM+WTuBcCGBfY+XBFJh+6FXE92OxVUcjiRIkMXIwv+YEwe5pFcHk75SC8H/OS8/hRB/EX/H83K+iG6qfhcQIkhg5dDlIh44rlsWV9YNpzfbkCl9vLuqC3JHvF2I6rlgZOdcu8oQHu3WSJAeIr/T83HFr9i1b/9kXhH8wA7pE0Pio3h3g8C4lr41qpx76sRMkny2fRkSxFkJYAYingkx19+6eqa/WA5zUx8oIDJQ1mglgg8jYkJP3/Gx3ZDsJG4iVIJ1ZtUtArHOfxiQRNxMfXPJzNyVhO7UZDgFduZKYHmZgk3AaQ0q96gB7dyk5P6KdRNVjI8hAerUmR1KlN//kKRn7ufRE0R3Fxl2pXgBzxGVgvstTub2bGabYCOIK/xcATkpqsgy4a8IJtqTwS8KuK3yd1qPPyEcZ53lKnh7FQJK6sRAk4bR1Pf+HPSV3ThKI1LYdAq5QcwFut9NeqsXA4aUm/WiPTBA3N29bVJfcA6LEigYQcHRRyauiXIRUNzkEXOE/FTF1vmm/RyITJC/82wj4bHLwo+wpGekvVIKxpaYBTN/u4Q2qY8bPA2hTe0Ca83skEkHq0LASIPqp54sz7YFPNeuBgCv8rUE0C8xRSsI23feINUH606OBxLsVBcC+3WvuefJ63Nux+cjL8m7EpM/+j7U1ykx7lipCH6hrimFFkEJWfYiX7nfoWrJJjlc9JaOutycZX2p7FQTcrDoCxFfbAqPbW5cqub1s9ePWsyOI8C9n4ItxBzOIvRFd/bAO+DSli6idtgg4qaik7tbV8GFMkM6s2j4gfrQekRPTEcWKuKYevlIf8SFwUFtl/VYn0K9JtvW4/kaZ6qeLPVP/Hl9UdpaMCVIQ/jUMfMHOnZlWQLx+t597y0wrlW4GBPLC35sA+1pkRL/wfBH/CVRDcIwIUsiq3Zm4Ph9QTA94FbGb4XxS8SZCwJXqe2C2rgbfDB/sRgRxha8bPeoiyfUY13tK6vqy6RjBCLjCv932VGIzfLCHJogr/M8BsG3weD8A06fB5Z6SXxrB90YaOgBXlgWYHgSwjg0gDBxfUvIKG904dMITRKo/gnk/S6d/AmCUtbkmVA63xHLEqRWy6gwm/qll4HM8JZPKEK8ZUiiCuLLcASbbXhAXAfiEaddXJv5mKeYOtDXRSAUSQyBSNU0OjvQq7b9PLLhhDIcjSITWBJ6SZPntcoynZFKFrRuB9Rrtc2CX/T5LEB7ylNzFUjeSWk2CRNkZZeDUkpIXFmR5JjMZtTsjpgOLFZF4Kksk9FJlIwQKWfUTJrbKqyOg0Ihuu7UJInzdpmyaERJLc/z/t6Rkfwp8IVu+iomONLHBwD4lJfW3SzpGCQL7y/Ja45keIosNRGK6u1gRdU9BGZYghaw6nIlt3/2+4Cmpq2AgL8qXE8goNYWZjl1TukGNkvs/1DTcXOVABIFVXYFG1CQYliB5qbppaa8707HSGQ5X+LpC39dNjBDR94q++JGJTio7MhDIC/8Oy773dS+GPSRBOqbO28zp63vGJnWZHOooloXeVOwfeeGfTYBps8d0H2Rk3O/GURayPYcxObYlf+ranXhIgriy8jVwoJdojQYDd5aUXKmeqysrJ4IDo+xMBv5YUlJvTqZjFCJg27SVgZ+UlPxOvSAZmiCifB9AprvfGGz1qZDr2ZUDR++mhx/EvZ6fy4ZXSCVHEgJ54X+BAJtM7fmeklPqNddBCVLIqhwT9xgHwfyIV8l9elW9gQNWL5vZo395SiTS+dYsjlQ6KQTywn+UgO1N7TuOs1dXOVuX5qyDEiSfLf+QiL5rGvhAf8DzBtNzhf+/ADY0sRkwbdRdEf8y0UllRw4Chaw6lon/xzhi4l94fq4uqfCDEsQVfi8A08cYo5rZypvX9udBCSLV/WDe1QiMEVgu32h+a7wwk5v1nwHRREMoXlqPeOLlfm6JoZ6x+GoEcWV5LzDZbNDd5Ck5ZHNOV/i6fL5Zdm56JsT4go40BTdbPh9Ep1nEfain5A0WekYqqxGkIPxLGTBu4VuruJtt1fdM4Eyc2Zt9zmhWqfCIQaAjO3cXhzIPWAR8lafk0RZ6RiorEeR4WV7rLSa992FUAEynlbQsGbPVzMcnvzGU945szwEOOTcbRaeFmU7zKuLnxnqpwohBoCDVHGaeahIwA6+PGTNh86T7U65EEDerCiDuMglUyxJwRVFJ3YVoyHHAjrPWXevdtZ5i5o+Y2CfQg0UlzL5dTByksg1HIJ9VZxGxTdbE/p6StyU5gZUJYvOdoAlC/Lmin/tjrUBdWb4ETCfXklv194ETTOsut8811UvlRwYCblZNAbFeGDId53pKnmGqZCK/CkHKswEyy9wlftLzc9uGcRrhTMB1npJ1qaQSZh6pTPwIFLLqLibe08QyAY8VlYzafmFYl8sJcsCWs9Ydt/b4fxHQahKk6da/7eaQLhZRj1ULk7mnsvEhkJfqNGI2bt3nLF7ywa4nPvVafJGsbGk5QQptPbuyY5gOol+vguqOxd6poQvJFWTlG8zBoJuJw0+SHvWU2DEpIFK7jUVgoH2f+WoWU6dXEcWkon+PIMI/hQGj1SK9krA+8SYmGza6xx2YdD8J4wLHTPSNki8uSAqM1G7jEDhelse8xfRvABNMomDgilKNBSITe6vKLieIK8tXg+kIQ2N3eUoaVSvR9l3ha8a7hr70atkr1b6+HbvnT3vRVDeVb34ECsK/l4HPmERKoOeKSpjuxId28R5BhD8PwOTQmvr1iumcYkWYnvNAPlfZj4Kg5qrXYLEw8MuSkon1QjSZfyobLwKu8H+m8/lMrQbEH+v2c38z1Qsj308Q/YE+fu3xC8IorCJj/eFcEL7HQN7Cp1Y52VPyUkvdVK1JEbAtTsjkHFzys1bHeGtB0U8Q2w/0sX0tG18zf4rO0jUe+azamYh1xT27EQQHeb3t5jvzdt5SrTog8Plpsyf0LRljXKyciL9ZTKiGWj9BLPOkHveUNHolWxXjgvCvZOAYS+z//Q7xx271c+9Y6qdqTYiATSY5Ef266IsTkpjO0idItjyTyaxuFYDIyWIDdVv1DnnGcnKRSWrpN1VLCIFCVl3FxEYlogDc4ylptMkYNvx+grjZ8rOmOfnEdFyxIq4M62gouUJWXczE9odfiH/v+TlTQKOGneonhEBe+KcToD/Www/iFz0/t3l4hfCSNLD+vDi8ylJJh3jrLj+nM38jjY5cz5ZO4MwBsF4EQ7/xlPxyBP1UtUkQKMjKZ5kD4wTErZXIzAAFcU+DDpHlTcYw/dPEsN4gLCn5AROd4WQLwj+bzcsCrWqyHDDtlx7RjeuqNMZOx+Q5mzktLS8Ye6/2benNmzboaVZjWysokJvr2RaB87ihkVjf+TqmPPphxxl7n+lr3iAxcwDsl7aNNryaTSbuCv+/ANYyCotpP68i7jDSCSFMNku8BJSKShrvhA/7FFmaC6aLVa8bIu5aImd5Sp5dS6iZfn/Mjs+s+/Y772xKxJs6TB8JaPVzM8T8NhG9XCV+GUuqL6NvnZe7n5pk/HrcTPMeLBZX+LqiTs4oTuavepXcL4x0QghTPqsOJeLlVRBD6GiRRN7581nVScQzQ8ZQS0x3w9LVGY3fZ2sZjvL7GWDnqbbyPkSZrYh4Kwa2ArA1ANtX1pcYeJKApxxyngyoz/fK7U9EibHRujYrWaZZ5WHnqHt36EIKuqBC+MH8U6+SsypjX8uJ5Z7McGYbTpTDJ89be0lLn65MfggDug2E7bJ2LfiW/f55MN8cgB+CQw+OtE7B+Wz5u0T0w7CTHZC71FPS+DBeLR+aILqM449rCa7y+9M9JS1S1sN5sc3JqWG9rkTp3Hb2xtzasjsCZy9dldw0SzUcUrWldL0AIvaY2CuV2x+prdF4CTdbPhlElxhFktByP+WF/3MCTjEM5ouenzMv+GXgxJXl/wHTsQYqoUR17WCH6YFqUL2/e168x3g7Js/bLNPSd5DOSNX/yPRDM9QM7IUG+pZ7RSWvsreSvGYh23M4k2PYdoNv8lRuyLJTtlHrJ4gO5HATA8zBYaVK+/UmOjayrvBvBHCQjW44HX6GCQ9Q4NxiswJyVFtl/cUtNDGo9u0dEB1o0xgmXJyxSz0UABd1K6nxbbqRF/7+BBh2F6N7PSX2iHsy5Fp0r2Xiz5T8nFkxasvII/SSMPW4kJlnEdHrBLzOTK/DCf6j/0v6Z+LxIJ4IpokEbAHQRAaP8NrBVCQKLir6Ob1R2zSjIPydGHjILCDq8ZQwKh0Uxj4VsmoOk1lNoiCoZrt7p9pUoQgT02oyBYvTjlaO1lAlIvrZosyS826cO+31ZoCgQ5a3c5jmG8byrKekXhGMdZAryn8ByCiPJckDKkPNrtBW2YGdYER8ZMZ6hepnTKcN6TI6De8sXGifuylXM0YHoBh4paTkh+KGS3+DvGmaB7Vw/MIJtzzy6bfjDqaWvY4pvR92MlW9T7JzLdn099YIXB8wndDIlB1dZHD8QuMDfP/1lFzHetZDKOonSB9ARuvyr01YMOaBB3brizuYsPbyWXUxRckADutozZXzQXy85+dUIyDY95O3t06YsPG7Zr656qlci5lObWn9BPkPgA1qi74n0Qx9O9ysOhXEaYUTkwtnIsv8H4JzdCN61du8YgF421PSqCJKGDg0QV4C8LEwwstkmqXi+sByoK4JnPYyNLmABrIEnFRU0qi/pIH5QUU7hC8doGxiR2+IlpTc2EQnjKwmiF4t2C6M8HKZwJnq9WbNW7QZOQkvPIqIslAvMzPjdUAvMeP1/v9H/383ButlZp4I/XMdBxP/rOTnvlUvl25W7Qvi2w39veQpuZmhTk1xvQ8yC8xmFQuJ9/b83F01rddZYKAqhn6i7F9n11Hc3QGmOwLiO7qVfD6MIV3coLp47EQ4wcSAaQsCDgSQbMNTppleRXw+THxRZfKyciRxYLrb/7Sn5DZRfa+qr1NNjJu6M+CWlCzFHUxc9pqbKPwCQPeA+J7M4oX3zHx8pyF7qpjgcWjb7C1aaOw+ID4AQOw7yjqWerXmdoX/Tb3kbDJ/AL6npFmKfAgHZFmf6suekr8JYb+hIv1EIe4A0+4APty4YLjCjNuI6HZPydlJxzG9bfYWfdSyLxHpY8g6lT7O8SVPycvjNLiqLZu2bATMKiq5U9xxkZtVV4D4OBPDxPStYkWYHaw3cZCAbP97rRPsMUAW0wal5hEx/xkObmPgtnql5awa5PTt5m9QHbNE9//T/8aZT2IIjYRO7y3zZpMfqNP7vUou9rw9/Q1yAZhPNQTvYk/JrxvqNI349LbKFn1U3ZfI2QfgfWMK7O8AzybQY1Wm2d0V8VhMdiOb6S+vFDingXh6ZGP9BugNULBHUvskrvDvBGBW85noF54v7KvjDAGMfsWawcD3TYBj4JaSkvrDcBQMps5t52zU19qyUQvThnqPhxxsxMwbMbARMW8EwgQGvQPmheTgHYLzTqB/Bt5hphc4U32ku9z+bLODkc/2HOqQcxoD20eNlYFZ3Lpor+7HdlgY1dZqr1jC1xuUposOiZxR0su8emXiWsNJpgXbDAFrJnFX+Drf6qioMRHTJcWK+FpUO4MQ5B/G34wcdHqV9tj7hFBBlqcxk+mH4/95SsZRXCFubFN7IRFwZfkCMJm+Wq9mvVb775DhrCTmCl8XohhjokuBs2OxNxu6kVNY29Sx/ZPvcxa9a5zm7BBv2OXndMOTdIxQBNxs+VQQRUvXIXrNYd6rS0nT9PRBUeucMndSkMkYF52gTPWjxZ6pf4/7UiwrPfo6iN5nZLzJdtONYk+FlyPQmVXbB8TR/vLGeB48n1XHELFpSVv2lM5OiX8sJYjw9SuWUXfbZt8sjB+q0WyRyRUqUtlOdoLPlsrtpukhq4HqCl/vr+lsCJOhPCWliUJY2WUE0R/pRmkEI3EvJCwoa6JcIatyTGydX8fMd5cqOV3aKNJwLTqdgfhKz88Z7eWFDXJpfxDRM4PgGC31ArjVU1KnNaRjlCBgVSNthblHrfh/8NQ57x/b12L8XcvASaWEMo6XPUFslnoXekqa1U8dJTfSaJ5GQfiXM/BFqzkSPeL54tNWuv1/qP29B0oTGZlIagVLBzHwka6mgNi4CAMFwW7F3nbz3tZG00+F64nAwKrm3QCEjV8CDilalhOyLGKIoHXRWklsWC4niP7BFb7uNbihCSgMzCgp+QMTnVS2+RHozPXsGQSO1XEGBt9YUrlDbGbpZss3gcg0Q+MZT8m4EzKXh79iG+gu3Y3NZGJJZVCaxJDKJoNAXpYvI+7PBjYeFFR3LPZONV46doX/CoAPGjqM3ApwOH/LCVLIqWM5YONyohQ4mxV7s/rYbjpGEQKdwp9cBeYS0Go6LZsUlIF+lb6pLyY+quTnrjbVCyu/nCDWO5jA0c1e6zUsGKncygi4wr8QgE3W9nOekhNN8HSFr/c+jM8YBU6wVZKJossJsvQ7pPw8QJ8wmRjqeBTTKK5UODIC7pQ5E5Fp0V2IjftHBsDu3UreFzYIV6gSwB1h5fvliF70fGFU9NDI/rJVrGVKlhXV3xrb1zLxmvlT9Ed+OkYZAm62fA6IbAo2XOQpGaprgCt8/ZH9lAV013hKHmGhF1plpSdIIauOZTL/DgFwTDOUrAw961QwNAIdsvxRJ8Bci0oqoV+zClJ9l5lNG+YATF/1KiL2tmsrgrMSQWy/QwC63lPisNCop4IjCgFXqF8DrDuRGQ2nmtm2a17bk7WUrEpPaaN1SJhdiSD93yFZNQtkWgYI7wbgLbv9nFHB4VrApb9vDgTy2Z5OIse4d2SYsyIF4R/MwA3GMyV6wPPFbsZ6hgqrESQv/NMJMC/IQHyi5+cuM/Sfio8ABA5qq6zf6gSvwnTJl+kCryK+MdwU3ay6zuqsPPNpXiX386ThW40gHbl5WzpBny6FbzTqVTPJKKhUODYErAopgO/yVG7I4gsdwv+ks/Tj3Oj0IIBqAGwVttBeFBBWI4g2lhf+zQQYZ+oGQK5bSePNnigTSHXrg4BlsfB/ekoOWY8sL8tnEtNPTGfAwI0lJa3SWUx9DU4Qu1Nd2rfuS278MWcadCpffwRcWf4EmEKVRl0xuqB13Pu7H5ukOwisNlzh6z+mNkmRdVs1HZQgnbL8gYDpaZvm9ulTpP43b708urL8BJgmmfgLuLprd2Xqg6vqDJSH1a25zQbRa62Z8ZN+P3dr4zoKZo6WSg9KEP2LgvCvZOAYC6PpU8QCtJGg4gpfd541KwxOnPf8XPeq8ytk1VVMfKTpvJn5klIlF3upoaHiGJogWXUAE99sOgEtnz5FbFBrfh2belqDnfbLy/JuxBQ6DWWlVzamHepZtXJIguig8tlyhYjaLC5d+hSxAK3ZVVypzgezrvMbfjD90KuIlY5zu8LXr1bGTY8asVI6PEFk+avEdHF4NN6TTJ8iNqg1t05eVs4kDoxWnYjo10VfnLBsZnlZPpKYTHt/9KszcHhJSdMqoJFAHZYgA91GdZ3UT5p6IaBUVNI11UvlmxcBy5T0GzwlD9WzOnzyvLUXt/TpVt421fWfeW3Cgu3q3Tx2WILoSdmeE15K+eBIr9L+++a95GlkJggUsj2HMTmrfXDXsHGvp2R/Q598Vp1FxD8y8blMtlHHu2sSpJBVH2IHCsw2ffGeXtzSt9ONc6fVZUnOBvhUJzwCNh/XDP5jSeU+N5DSrp8eRh2VB6L76+K+d6feOH/Huh+pqEmQ/qeIVOeA2eZMgH5vPL+kpG6plY4RjkBe+F8kwKi7FBP9oeSLjrwoX04gq3JCDJxRUtK0JVssaIciSEeuZ0sncPS3iFUdrLQ8UCzXquFGXOHrm9Tojx0D1xJlrgFX/2Q5gWcW/nfh1Fue/fTblvqR1EIRRHsoCP9SBr5i6e1PnpL7WOqmak2CQF74NxBwsEk4BFwRAJsSYHf963Aoarj5hCdIrifLgfMQgHVMAFouW6f0ZKvYUqVQCFgebDobwHdCOVhNiCuvTXh7ar1XrlYMIzRBBp4i32ZAT9hmvMtOsEep3K4/1NIxAhFwRXkhQKbNQHU6u1X/cmY6tlQRv20kVEYEmYEZztPZAx4yPnE4MEMCPfjqhLf2aORfhEaCPZJ9f37avI/0LemLvUHNMJg0RXF0I4L0P0Vk5bPMwW0RLva5npJnRNBPVRuAgM0Sb5QwmWmXUkXoV/qGDmOC6Ghd4f8SwIkRIj/UU9L8HHIEh6lqNASs8rAsXRJwYVHJyP0TLd2vpGZFkEL73E25mtHs/rhdEPxsUG3ZvXte28t2+qlWvRFwRfkZgLasg9+XiGnHYkX8sw6+arqwIsjAU8SqVOR7EVG3p0S+ZoSpQMMRcLN27TFsAk+yGY5NPNYE0c5s1sVXDjIlic1Fq7eOK3y9OViPneyip2Rnvec3nL9IBBk4p6x3SM3q+a78lpc+SZrpjhgkFlf49wDYPdkw+YWgr7pH9/xpLybrx8x6JIJoV9aFv1KSmF2pBkm7U3onIlN9Nmn3BBSKSnpJ+zG1H5kgA69a3ydghqnzVeTTU4gRAUxCvSDVT5k52WV5ogs8f/gCc0nMLYzNWAgSz/eIPjEW/KCk2qMSLcy8U5kQCHTkeqc6Qd+jAGVCiNuKPLxgwWt73vH8fotsDSSpFxtB4vke6S+zcn4xTY9P8pqHtl0QvsdAYiuNBLzuOJn9ZpbbdA+SphyxESS+7xHdF2Xlc8xNidwoD6ogfJeBYsLT/IKn5HUJ+4hkPlaCxPg9op8k126lxJEzQEGkGabKxggcL8tj3mLnEYDbjZVDKjTqCG3I8JaLxU4QbdnNqitAfJxpMKvK6zIvDtPxzbKrGnU+I0XfleVvgemcpOLVf/yKSh6elP047SZCkIEnyR3Wh2RWnqGu33okAwrQAAAJpUlEQVSSp+TsOCee2hocgbzw9yZAV1AcmwxGPCdYtHi/7id3GLRebzI+7a0mRpD+J4nw5wPYzj685ZpvEnBK2k03BiSHMXGILG8yhukxAB9LyNNfg8A5qLs325uQ/djNJkqQ/WV5rbWY/mFZyWL1yRL91PPFmbGjkBrsR6Ag/EcZ2D4hOP4v4OrnBitknZC/WMwmShAd4SFZ9bExxC/FEu1SIzdR4JxS7M3GaTPG8EamKVf4fwDQX+AtiTFUlfckfMVpM3GC6GA7hC8doBxj4M8EwCndSt4Zo8011lRe+F8h4NKkABip5NB41IUg/Y/v7JwcU0tPnBeBiH48bt23zr7qgd3ejdPummQrn1WHErF+eiQywpLjoLb71x/rTNhpYGFnGkCbAPwhAPpcyCsEzGbgzoD44W4/91YiwQ5itG4E6X+STJ6zmdPS8kKckyPmuQHRj0tKmjdjiTOQEWirkFU/YeLEvukC4sndfu7x4aDp2ObJsc64d3W/D/1vyHZty2ww8z8cBxdPAC6+3M8tSRr2uhJk6ZNEfYiJ9UrJR2Oe3KXOmLE/7pqz3Wsx2x115gauwe8A7JXU5AKmSd0VoSuaDDkGzrmfb9mGTTlMp3ZVxGrdq+KcU90JooM/eOqc97f2jbmewbvEORkAzxLT2cWKuCZmu6PGXF74+zvA7xh4f0KT+mfAtGdIclg10Vkx7oBp1+4ESdIQgvS/bm3z5DqZcYuuY7BxN92aF5b5dhBdmRaGeA8pXUcA1cyxDKzUzKYmliYCxE8GgZOvRY7OKb2Tgkz1CRPTw8kSsHNRyYfjsreinYYRRAcxkPNzHcAdSUwOwL2OQ1d2lUVXQvab3uz0tsoWfZnqscR0rE1T1rATJKK7qwG+HpIc+ma2qfI+ZDgO0w5dFaFf3WMdDSXIspnkRc8MgpPcXzamR0Csnyj6vXuNGJ3CnxwsbcKqiWFXLjY8UhdtrcRpYRJLXVG+EaCDwpsOLxk4wbTucnusqfNNQRANwcDR3fOinW8fHkwGfDDflCG6pUtJnQYz6kbH9o++z1nUqhMNNTlaEp7gm8T0jWJFXBnGTz7XsyMFzqwwsrYycbf+axqCaED0oStmOs+0grglmHcBuHUJ0603VMRfLW00lVohq3JMrJe7P5h4YMyPkIPTin5uTlhfrlSXgPnksPK2csTUXqyIWDamm4ogdXvlWhn5dwG+1QHdwkz3jdTU+nrWztW9ylurY759zfwp/zW5iV3hP2fT79LExzLZwMlM647hpGJTEqRer1yDAN8HplnkBLNQ5XuLve0P2FyceusMbLbdnnxpHjxNTN8rVoTxzvvAN9G8OmOzfdRjEk1LEA1khyx/lIAzienLdQa2350+M83AgyC+A4HT0zJ23Revm7PFgkbEMpzPgqgcxQiSXoC4PMhUv9/dM/VVm/knndIyVEwUODsWe7OP2sQ8cA/YqtZPT29uQRMluVTs0JPRpAmAl8D8IhG9COIXHaYXCfhXlfjNYOz4NyY9ts2bYVZ0QjutIejK8iVgSubdfun8vtcVsT+5m1Ung/iSuOZsYifKPklTP0FWBKGjgzP0fOVMWpo7ZNUr0QTU6LK8AKA3ALwJpjcIeAxO8MS419++4aqX4k2uLAj1QAJZCVUwXbSkuviiG+Z/Sp/piTQKwo/SfCmSb60cNmlyVUcjhiDLAndlWfDS167DIqPWCAMhd5tNQovShXgwP0TcVSW+KM49hYLwj2Ig6dfAYWFj4s+U/Nz9JtiOOIIsJ4rwjwbwJQDTTCbcLLJBX9/mcdWhdYX/eQDXRp3bwPfWRSU/d1NUW6vqu7K8F5hsO93GFg4x7VGsiHvDGhyxBFk2wYKsTGcONFn2CDvpJpF7Zj1iebmfeydqPJ3bzt44GDtGF7Ww7NeCh4np6rAbfjbxHi/La73FZLQsbOMnjI7jOHt1lbN3h5Ed8QRZNsmBD/mj67TJGAbbmjJxVpF0hf91ABfWdLqCAAO3EHB1vZI6o7fLMJnd8LIM7FNSsuYTbdQQZPkTJVfZlZmPBvMR8cGZmKX7PSU/E5N1crPqlyA+oZY9Yr46cHC16ft4Lbu1fu/K8glg+lUtuXr9noPgs6Xedr1/NOQYdQRZTpSlR3wPAvhAgLatF+iGfhZ4Sq5nqDOsuCt83fnrpFXKLT3OwPUE+GOI/Wv93Ctx+gxrSx9xcMa9qzcLNw+rUwe5/T0lh2xKO2oJsiKw+bae/chxDiDgAAY2qQPoYV084SkZR92w1fxN327+BkFm0RSn2jpv5uOT9XJzU4yC8GckeibFYpbEdGCxInSxvNXGGkGQZbPukOX1MoFzAJN+qkAf1BpjgWecKr/zlNRZt2vUSDLl3RZIJj54sNW7NYogK4I3vX3+5tXqkj0I2AnATpxcNcGh32+Zjkty5cj2ZqmHXkKbm1FDX609+RpLkFWRLMjyNIazG5h31YSpw279vZ6SI21pOuoNuJJ+M5KEyTm45GeX7wOlBBnikuezameH+DMB0SRi1h/5W8V2dxA96fmiWRcOYptmGENNSJLnM5lg75k97f3lqVKChLmKAHbd9f6Wjd9abxKIt4UmDNEkEOmfNwtpQos9zsy/KlVyvzbQGfWiTUiSGzwl+8uwpgSJePvNwAznye33al2ycFHrusH7xi5pdVqr1cWtLdVMa9DS1xoETmuGq63NtpoUcdqxqzcdSZg6vYoopgSJ/VKnBm0RaDKSzPaU3D4liO3VTPUSQaCZSKJztlKCJHKZU6NREGgikugCIulIEWg+BJqEJI+mBGm+eyONaACBJiDJSylB0tuxqRFoLEloUUqQpr490uD0/tMHF6x3TwJn7muDS/SflCC1YUolGozAUbu+OO7dBW/c2QCSPJ0SpMEXP3UfDoEDtpy17lprr3VrnUlyf0qQcNcnlWoCBPrPuIzpu7FeJCGm41KCNMGFT0MIj0BHVm3oEF8/kHEdXtFCMuhr2TwliAVwqUpjEdA9FkH8B0620ublnpJfSgnS2GuderdEQNdtdpj0kyRnaWI4NQa15Dx/ikoJkgC6qcn6IDC9vWfzakDXg6ktTo+6vUOpktNtqdN09ziBTW3VHwF3au9E9FX1kySuA2jPeUpOXDaT9AlS/2uaeowZgc4pcydVHedCItozimkCZhWV1Metl4+UIFEQTXWbCQFys+XzQHSaZVBne0qetapuShBLNFO15kSgIHxdoUZ/P/Qfma01mOgPDvMlQ/VZTwlSC8H09yMSgULb3B1ALZ9j4l0AbAzQxgAzmF8BnH8y8d0O0121mn3+P/id/2+bj0mnAAAAAElFTkSuQmCC;" parent="1" vertex="1">
          <mxGeometry x="34" y="1110" width="40" height="40" as="geometry" />
        </mxCell>
        <mxCell id="pcb0knjUofV3J0k_9IlG-10" value="" style="shape=singleArrow;direction=west;whiteSpace=wrap;html=1;arrowWidth=0.35714285714287336;arrowSize=0.1486607142857153;fillColor=#fa6800;rotation=-135;strokeColor=#C73500;fontColor=#000000;" parent="1" vertex="1">
          <mxGeometry x="-107" y="1031" width="160" height="28" as="geometry" />
        </mxCell>
        <mxCell id="pcb0knjUofV3J0k_9IlG-13" value="" style="shape=singleArrow;direction=north;whiteSpace=wrap;html=1;arrowWidth=0.35714285714287336;arrowSize=0.1486607142857153;fillColor=#fa6800;rotation=-180;strokeColor=#C73500;fontColor=#000000;" parent="1" vertex="1">
          <mxGeometry x="56" y="946" width="28" height="160" as="geometry" />
        </mxCell>
        <mxCell id="pcb0knjUofV3J0k_9IlG-15" value="邀约价过期商品&lt;br&gt;抹除场景标&lt;br&gt;scheduleX" style="edgeLabel;html=1;align=center;verticalAlign=middle;resizable=0;points=[];labelBackgroundColor=none;" parent="1" vertex="1" connectable="0">
          <mxGeometry x="-0.9965217391304861" y="1017.9999999999998" as="geometry" />
        </mxCell>
        <mxCell id="pcb0knjUofV3J0k_9IlG-16" value="" style="edgeStyle=orthogonalEdgeStyle;rounded=0;orthogonalLoop=1;jettySize=auto;html=1;fillColor=#fa6800;strokeColor=#C73500;strokeWidth=2;" parent="1" edge="1">
          <mxGeometry relative="1" as="geometry">
            <mxPoint x="390" y="720" as="sourcePoint" />
            <mxPoint x="390" y="780" as="targetPoint" />
          </mxGeometry>
        </mxCell>
        <mxCell id="pcb0knjUofV3J0k_9IlG-17" value="IC监听" style="edgeLabel;html=1;align=center;verticalAlign=middle;resizable=0;points=[];" parent="pcb0knjUofV3J0k_9IlG-16" vertex="1" connectable="0">
          <mxGeometry x="-0.2333" relative="1" as="geometry">
            <mxPoint as="offset" />
          </mxGeometry>
        </mxCell>
        <mxCell id="pcb0knjUofV3J0k_9IlG-18" value="IC 新增SKU" style="image;aspect=fixed;perimeter=ellipsePerimeter;html=1;align=center;shadow=0;dashed=0;spacingTop=3;image=img/lib/active_directory/list.svg;" parent="1" vertex="1">
          <mxGeometry x="380" y="784" width="23.1" height="33" as="geometry" />
        </mxCell>
        <mxCell id="pcb0knjUofV3J0k_9IlG-21" value="" style="endArrow=classic;html=1;rounded=0;entryX=0.75;entryY=0;entryDx=0;entryDy=0;fillColor=#fa6800;strokeColor=#C73500;strokeWidth=2;" parent="1" target="atDhAGsUYtWK8VnYLnzi-18" edge="1">
          <mxGeometry width="50" height="50" relative="1" as="geometry">
            <mxPoint x="392" y="850" as="sourcePoint" />
            <mxPoint x="-30" y="940" as="targetPoint" />
            <Array as="points">
              <mxPoint x="392" y="940" />
            </Array>
          </mxGeometry>
        </mxCell>
        <mxCell id="pcb0knjUofV3J0k_9IlG-22" value="任务删除/关闭" style="edgeLabel;html=1;align=center;verticalAlign=middle;resizable=0;points=[];" parent="pcb0knjUofV3J0k_9IlG-21" vertex="1" connectable="0">
          <mxGeometry x="0.0681" y="2" relative="1" as="geometry">
            <mxPoint x="74" y="-188" as="offset" />
          </mxGeometry>
        </mxCell>
        <mxCell id="pcb0knjUofV3J0k_9IlG-24" value="" style="shape=singleArrow;whiteSpace=wrap;html=1;fillColor=#fa6800;fontColor=#000000;strokeColor=#C73500;" parent="1" vertex="1">
          <mxGeometry x="510" y="1123" width="50" height="17" as="geometry" />
        </mxCell>
        <mxCell id="pcb0knjUofV3J0k_9IlG-27" value="" style="endArrow=classic;html=1;rounded=0;strokeWidth=2;fillColor=#fa6800;strokeColor=#C73500;" parent="1" edge="1">
          <mxGeometry width="50" height="50" relative="1" as="geometry">
            <mxPoint x="505" y="1110" as="sourcePoint" />
            <mxPoint x="565" y="1110" as="targetPoint" />
          </mxGeometry>
        </mxCell>
        <mxCell id="pcb0knjUofV3J0k_9IlG-29" value="本期新增链路������������" style="edgeLabel;html=1;align=center;verticalAlign=middle;resizable=0;points=[];labelBackgroundColor=none;" parent="1" vertex="1" connectable="0">
          <mxGeometry x="456.50347826086954" y="1124.9999999999998" as="geometry">
            <mxPoint x="-4" y="-4" as="offset" />
          </mxGeometry>
        </mxCell>
      </root>
    </mxGraphModel>
  </diagram>
</mxfile>
